<?xml version="1.0" encoding="utf-8"?>
<!-- Generator: Adobe Illustrator 24.1.1, SVG Export Plug-In . SVG Version: 6.00 Build 0)  -->
<svg version="1.1" id="Layer_1" xmlns="http://www.w3.org/2000/svg" xmlns:xlink="http://www.w3.org/1999/xlink" x="0px" y="0px"
	 viewBox="0 0 50 50" style="enable-background:new 0 0 50 50;" xml:space="preserve">
<style type="text/css">
	.st0{fill:#ffffff;}
	.st1{fill:#FF0000;}
	.st2{fill:#FFFFFF;}
	.st3{fill:none;stroke:#FF0000;stroke-width:0.75;stroke-linecap:round;stroke-miterlimit:10;}
	.st4{fill:#eaeaea;}
	.st5{fill:none;stroke:#ffffff;stroke-miterlimit:10;}
</style>
<g>
	<path class="st0" d="M-1147.5,31.8V24c0-0.1,0-0.2-0.1-0.3l-1.7-3.9c-0.1-0.2-0.3-0.4-0.6-0.4h-2.9c-0.4,0-0.7,0.3-0.7,0.7v2.3
		h-1.9v-2c0-0.4-0.3-0.7-0.7-0.7h-3.6V16c0-0.4-0.3-0.7-0.7-0.7h-6.3v-2.1h6.3c0.4,0,0.7-0.3,0.7-0.7s-0.3-0.7-0.7-0.7h-13.8
		c-0.4,0-0.7,0.3-0.7,0.7s0.3,0.7,0.7,0.7h6.3v2.1h-6.3c-0.4,0-0.7,0.3-0.7,0.7v1.5h-3.1c-0.4,0-0.7,0.3-0.7,0.7v6.8h-2.6v-6.8
		c0-0.4-0.3-0.7-0.7-0.7s-0.7,0.3-0.7,0.7V33c0,0.4,0.3,0.7,0.7,0.7s0.7-0.3,0.7-0.7v-6.8h2.6V33c0,0.4,0.3,0.7,0.7,0.7h4.7l4.8,4
		c0.1,0.1,0.3,0.2,0.4,0.2h11.9c0.4,0,0.7-0.3,0.7-0.7v-3.7h1.9v2.3c0,0.4,0.3,0.7,0.7,0.7h2.9c0.3,0,0.5-0.2,0.6-0.4l1.7-3.9
		C-1147.5,32-1147.5,31.9-1147.5,31.8z M-1148.9,31.8l-1.5,3.3h-1.8v-2.3c0-0.4-0.3-0.7-0.7-0.7h-3.2c-0.4,0-0.7,0.3-0.7,0.7v3.7
		h-11l-4.8-4c-0.1-0.1-0.3-0.2-0.4-0.2h-4.3V18.8h3.1c0.4,0,0.7-0.3,0.7-0.7v-1.5h12.5v3.7c0,0.4,0.3,0.7,0.7,0.7h3.6v2
		c0,0.4,0.3,0.7,0.7,0.7h3.2c0.4,0,0.7-0.3,0.7-0.7v-2.3h1.8l1.5,3.5L-1148.9,31.8z"/>
</g>
<g>
	<path class="st0" d="M-1081.9,13.1c-2.3,0-4.6,0.5-6.4,1.5l-0.1,0.1l-0.1-0.1c-1.9-1-4.1-1.5-6.4-1.5s-4.6,0.5-6.4,1.5l-0.1,0.1
		l-0.1-0.1c-1.9-1-4.1-1.5-6.4-1.5c-0.4,0-0.8,0.3-0.8,0.8s0.3,0.8,0.8,0.8c1.6,0,3.2,0.3,4.6,0.8l0.4,0.1l-0.3,0.3
		c-1.5,1.3-2.3,2.8-2.3,4.5l0,12c0,2.3,1.9,4.2,4.2,4.2c2.3,0,4.2-1.9,4.2-4.2v-12c0-1.7-0.8-3.3-2.3-4.6l-0.3-0.3l0.4-0.1
		c1.4-0.5,3-0.8,4.6-0.8s3.2,0.3,4.6,0.8l0.4,0.1l-0.3,0.3c-1.5,1.3-2.3,2.9-2.3,4.6v12c0,2.3,1.9,4.2,4.2,4.2s4.2-1.9,4.2-4.2v-12
		c0-1.7-0.8-3.3-2.3-4.6l-0.3-0.3l0.4-0.1c1.4-0.5,3-0.8,4.6-0.8c0.4,0,0.8-0.3,0.8-0.8S-1081.5,13.1-1081.9,13.1z M-1099,20.4l0,12
		c0,1.4-1.2,2.6-2.6,2.6c-1.4,0-2.6-1.2-2.6-2.6v-12c0-1.4,0.9-2.8,2.5-3.9l0.1-0.1l0.1,0.1C-1099.8,17.6-1099,19-1099,20.4z
		 M-1085.8,20.4v12c0,1.4-1.2,2.6-2.6,2.6s-2.6-1.2-2.6-2.6v-12c0-1.4,0.9-2.8,2.5-3.9l0.1-0.1l0.1,0.1
		C-1086.7,17.6-1085.8,19-1085.8,20.4z"/>
</g>
<g>
	<g>
		<path class="st0" d="M-1221.5,34.8h-29c-0.3,0-0.5-0.2-0.5-0.5v-7h-5v-1h5.5c0.3,0,0.5,0.2,0.5,0.5v7h28v-7c0-0.3,0.2-0.5,0.5-0.5
			l5.6,0h0c0.1,0,0.2,0,0.3,0.1l1,0.6l1.4-2.2l-2.4-1.5h-5.9c-0.3,0-0.5-0.2-0.5-0.5v-7h-28v7c0,0.3-0.2,0.5-0.5,0.5h-5.5v-1h5v-7
			c0-0.3,0.2-0.5,0.5-0.5h29c0.3,0,0.5,0.2,0.5,0.5v7h5.5c0.1,0,0.2,0,0.3,0.1l3,1.9c0.1,0.1,0.2,0.2,0.2,0.3c0,0.1,0,0.3-0.1,0.4
			l-2,3c-0.2,0.2-0.5,0.3-0.7,0.1l-1.3-0.8l-5,0v7C-1221,34.6-1221.2,34.8-1221.5,34.8z"/>
	</g>
	<g>
		<circle class="st1" cx="-1246.2" cy="20.1" r="1.8"/>
		<circle class="st1" cx="-1241.1" cy="20.1" r="1.8"/>
		<circle class="st1" cx="-1236" cy="20.1" r="1.8"/>
		<circle class="st1" cx="-1230.9" cy="20.1" r="1.8"/>
		<circle class="st1" cx="-1225.8" cy="20.1" r="1.8"/>
	</g>
	<g>
		<circle class="st1" cx="-1246.2" cy="30.1" r="1.8"/>
		<circle class="st1" cx="-1241.1" cy="30.1" r="1.8"/>
		<circle class="st1" cx="-1236" cy="30.1" r="1.8"/>
		<circle class="st1" cx="-1230.9" cy="30.1" r="1.8"/>
		<circle class="st1" cx="-1225.8" cy="30.1" r="1.8"/>
	</g>
	<g>
		<circle class="st1" cx="-1243.6" cy="25.1" r="1.8"/>
		<circle class="st1" cx="-1238.5" cy="25.1" r="1.8"/>
		<circle class="st1" cx="-1233.5" cy="25.1" r="1.8"/>
		<circle class="st1" cx="-1228.4" cy="25.1" r="1.8"/>
	</g>
</g>
<g>
	<path class="st0" d="M-870,16.1l-23.3,23.3c-2.3-1.4-4.3-3.4-5.7-5.7c0,0,0-0.1-0.1-0.1l23.3-23.3C-873.4,11.7-871.4,13.7-870,16.1
		z"/>
	<path class="st0" d="M-884.5,42.3c-3.2,0-6.3-0.9-9-2.5c-2.4-1.5-4.5-3.5-6-6c-4.1-6.9-3.1-15.7,2.6-21.4
		c5.7-5.7,14.5-6.8,21.4-2.6c2.4,1.5,4.5,3.5,6,6c3.3,5.4,3.3,12.2,0.2,17.7C-872.4,38.9-878.2,42.3-884.5,42.3z M-884.5,8.5
		c-5.9,0-11.3,3.2-14.2,8.3c-2.9,5.1-2.8,11.4,0.2,16.5c1.4,2.3,3.3,4.2,5.6,5.6c6.4,3.9,14.7,2.8,20-2.5s6.3-13.6,2.5-20
		c-1.4-2.3-3.3-4.2-5.6-5.6C-878.6,9.3-881.5,8.5-884.5,8.5z"/>
</g>
<g>
	<g>
		<g>
			<path class="st0" d="M-744.5,12c-6.5,0-19.8,5.9-19.8,12.8s13.3,12.8,19.8,12.8s19.8-5.9,19.8-12.8S-738,12-744.5,12z
				 M-744.5,36.5L-744.5,36.5c-6.5,0-18.7-6-18.7-11.6s12.1-11.7,18.7-11.7s18.6,6,18.6,11.6S-738,36.5-744.5,36.5z"/>
		</g>
	</g>
	<g>
		<g>
			<path class="st0" d="M-758.6,22.1L-758.6,22.1c-1.5,0-2.7,1.2-2.7,2.7s1.2,2.7,2.7,2.7s2.7-1.2,2.7-2.7
				C-755.9,23.3-757.1,22.1-758.6,22.1z M-758.6,26.4L-758.6,26.4c-0.9,0-1.5-0.7-1.5-1.5c0-0.9,0.7-1.5,1.5-1.5s1.5,0.7,1.5,1.5
				C-757.1,25.7-757.8,26.4-758.6,26.4z"/>
		</g>
	</g>
	<g>
		<g>
			<path class="st0" d="M-730.4,22.1c-1.5,0-2.7,1.2-2.7,2.7s1.2,2.7,2.7,2.7c1.5,0,2.7-1.2,2.7-2.7l0,0
				C-727.7,23.3-728.9,22.1-730.4,22.1z M-730.4,26.4L-730.4,26.4c-0.9,0-1.5-0.7-1.5-1.5c0-0.9,0.7-1.5,1.5-1.5
				c0.9,0,1.5,0.7,1.5,1.5C-728.8,25.7-729.5,26.4-730.4,26.4z"/>
		</g>
	</g>
	<g>
		<g>
			<path class="st1" d="M-744.5,16.5L-744.5,16.5c-4.6,0-8.4,3.7-8.4,8.4c0,4.6,3.7,8.4,8.4,8.4s8.4-3.7,8.4-8.4c0,0,0,0,0,0
				C-736.1,20.2-739.9,16.5-744.5,16.5z M-737.3,24.8c0,4-3.2,7.2-7.2,7.2c-4,0-7.2-3.2-7.2-7.2s3.2-7.2,7.2-7.2
				C-740.5,17.6-737.3,20.8-737.3,24.8L-737.3,24.8z"/>
		</g>
	</g>
</g>
<g>
	<path class="st1" d="M-592.7,29.8c2.7-2.7,2.8-7.2,0-10c0,0-0.1-0.1-0.1-0.1c-2.8-2.7-7.2-2.7-10,0l0,0c-2.8,2.8-2.8,7.2,0,10
		C-600,32.6-595.5,32.6-592.7,29.8L-592.7,29.8z M-603.6,25.4l2.4,0c0.1,0.5,0.3,1,0.6,1.5l-1.7,1.7
		C-603.1,27.7-603.5,26.6-603.6,25.4L-603.6,25.4z M-594,20.3l-1.7,1.7c-0.4-0.3-0.9-0.5-1.5-0.6v-2.4C-596,19-594.9,19.5-594,20.3
		L-594,20.3z M-591.8,24.3h-2.4c-0.1-0.5-0.3-1-0.6-1.5l1.7-1.7C-592.4,22-592,23.1-591.8,24.3L-591.8,24.3z M-599.4,23.2
		c0.9-0.9,2.4-0.9,3.4,0s0.9,2.4,0,3.4s-2.4,0.9-3.4,0c-0.4-0.4-0.7-1.1-0.7-1.7C-600.1,24.2-599.9,23.6-599.4,23.2L-599.4,23.2z
		 M-597.2,28.3c0.5-0.1,1-0.3,1.5-0.6l1.7,1.7c-0.9,0.7-2,1.2-3.2,1.3L-597.2,28.3z M-594.9,26.9c0.3-0.4,0.5-0.9,0.6-1.5l2.4,0
		c-0.1,1.2-0.6,2.3-1.3,3.2L-594.9,26.9z M-598.3,21.4c-0.5,0.1-1,0.3-1.5,0.6l-1.7-1.7c0.9-0.7,2-1.2,3.2-1.3L-598.3,21.4z
		 M-600.6,22.8c-0.3,0.4-0.5,0.9-0.6,1.5h-2.4c0.1-1.2,0.6-2.3,1.3-3.2L-600.6,22.8z M-599.8,27.7c0.4,0.3,0.9,0.5,1.5,0.6v2.4
		c-1.2-0.1-2.3-0.6-3.2-1.3L-599.8,27.7z"/>
	<path class="st0" d="M-591.6,31c3.4-3.4,3.4-8.9,0-12.4s-8.9-3.4-12.4,0c-3.4,3.4-3.4,8.9,0,12.4c1.6,1.6,3.9,2.6,6.2,2.6
		C-595.4,33.6-593.2,32.7-591.6,31L-591.6,31z M-605.3,24.8c0-4.2,3.4-7.6,7.6-7.6c4.2,0,7.6,3.4,7.6,7.6c0,4.2-3.4,7.6-7.6,7.6
		c-2,0-3.9-0.8-5.4-2.2C-604.5,28.8-605.3,26.8-605.3,24.8z"/>
	<path class="st0" d="M-613.7,37.2c-0.3,0-0.6,0.3-0.6,0.6c0,0.3,0.3,0.6,0.6,0.6l0,0h15c0,0,0,0,0.1,0c0,0,0,0,0,0c0,0,0.1,0,0.1,0
		c0,0,0,0,0,0c0,0,0.1,0,0.1,0c0,0,0,0,0,0c0,0,0,0,0.1-0.1c0,0,0,0,0,0c0.2-0.3,0.7-0.3,0.9-0.1c0,0,0.1,0.1,0.1,0.1
		c0.1,0.1,0.3,0.2,0.5,0.2c1.1-0.1,2.1-0.3,3.1-0.6c0.2-0.1,0.3-0.2,0.4-0.4c0.1-0.4,0.5-0.6,0.8-0.5c0.1,0,0.1,0,0.1,0.1
		c0.2,0.1,0.4,0.1,0.5,0c1-0.5,2-1.1,2.9-1.9c0.1-0.1,0.2-0.3,0.2-0.5c0-0.4,0.2-0.7,0.6-0.7c0.1,0,0.1,0,0.2,0
		c0.2,0,0.4-0.1,0.5-0.2c0.7-0.8,1.3-1.7,1.8-2.6c0.1-0.2,0.1-0.4,0-0.5c-0.2-0.3-0.1-0.7,0.3-0.9c0,0,0.1,0,0.1-0.1
		c0.2-0.1,0.3-0.2,0.4-0.4c0.4-1.1,0.6-2.2,0.7-3.4c0-0.2-0.1-0.4-0.2-0.5c-0.3-0.2-0.3-0.7-0.1-0.9c0,0,0.1-0.1,0.1-0.1
		c0.1-0.1,0.2-0.3,0.2-0.5c-0.1-1-0.3-2.1-0.6-3.1c-0.1-0.2-0.2-0.3-0.4-0.4c-0.4-0.1-0.6-0.5-0.5-0.8c0,0,0-0.1,0.1-0.1
		c0.1-0.2,0.1-0.4,0-0.5c-0.5-1-1.1-2-1.9-2.9c-0.1-0.1-0.3-0.2-0.5-0.2c-0.4,0-0.7-0.2-0.7-0.6c0-0.1,0-0.1,0-0.2
		c0-0.2-0.1-0.4-0.2-0.5c-0.8-0.7-1.7-1.3-2.6-1.8c-0.2-0.1-0.4-0.1-0.5,0c-0.3,0.2-0.7,0.1-0.9-0.3c0,0,0-0.1-0.1-0.1
		c-0.1-0.2-0.2-0.3-0.4-0.4c-1.1-0.4-2.2-0.6-3.4-0.7c-0.2,0-0.4,0.1-0.5,0.2c-0.2,0.3-0.7,0.3-0.9,0.1c0,0-0.1-0.1-0.1-0.1l0,0
		c0,0,0,0-0.1-0.1c0,0,0,0,0,0c-0.1,0-0.1-0.1-0.2-0.1c0,0,0,0,0,0c0,0,0,0-0.1,0l-15,0c-0.3,0-0.6,0.3-0.6,0.6s0.3,0.6,0.6,0.6l0,0
		l11.4,0c-0.1,0.1-0.2,0.2-0.3,0.2c-0.2,0.1-0.4,0.1-0.6,0c-0.2-0.1-0.4-0.1-0.5,0c-1,0.5-1.9,1.1-2.7,1.8h-5.8
		c-0.3,0-0.6,0.3-0.6,0.6s0.3,0.6,0.6,0.6l0,0h5.3c0,0,0,0,0,0c-0.1,0.1-0.3,0.2-0.5,0.2c-0.2,0-0.3,0-0.5,0.2l0,0
		c-0.6,0.7-1.1,1.5-1.6,2.3h-10.1c-0.3,0-0.6,0.3-0.6,0.6c0,0.3,0.3,0.6,0.6,0.6l0,0l10.1,0c0,0.1,0,0.2-0.1,0.3
		c-0.1,0.2-0.2,0.3-0.4,0.4c-0.2,0.1-0.3,0.2-0.4,0.4c-0.4,1.1-0.6,2.2-0.7,3.4c0,0.2,0,0.3,0.1,0.4l-11.2-0.1
		c-0.3,0-0.6,0.3-0.6,0.6c0,0.3,0.3,0.6,0.6,0.6l11.2,0.1c-0.1,0.1-0.2,0.3-0.2,0.4c0.1,1,0.3,2.1,0.6,3.1c0.1,0.2,0.2,0.3,0.4,0.4
		c0.4,0.1,0.6,0.5,0.5,0.8c0,0,0,0.1,0,0.1l-9.9,0c-0.3,0-0.6,0.3-0.6,0.6c0,0.3,0.3,0.6,0.6,0.6l10.1,0c0.5,0.8,1,1.6,1.6,2.3
		c0.1,0.1,0.3,0.2,0.5,0.2c0.2,0,0.4,0,0.5,0.2c0,0,0,0,0,0h-5.3c-0.3,0-0.6,0.3-0.6,0.6s0.3,0.6,0.6,0.6h5.8
		c0.8,0.6,1.6,1.2,2.4,1.6c0.2,0.1,0.4,0.1,0.5,0c0.3-0.2,0.7-0.1,0.9,0.3c0,0,0,0,0,0.1L-613.7,37.2z M-605.6,34.4
		c-0.1-0.9-0.8-1.6-1.7-1.7c-0.6-0.7-1-1.4-1.4-2.2c0.3-0.9-0.1-1.8-0.9-2.2c-0.2-0.8-0.4-1.5-0.4-2.3c0.3-0.3,0.4-0.7,0.4-1.2
		c0,0,0,0,0,0l0,0c0-0.4-0.2-0.9-0.4-1.2c0.1-0.9,0.3-1.7,0.5-2.6c0.8-0.4,1.2-1.3,0.9-2.2c0.4-0.7,0.8-1.3,1.3-2
		c0.9-0.1,1.6-0.8,1.7-1.7c0.7-0.6,1.4-1,2.2-1.4c0.9,0.3,1.8-0.1,2.2-0.9c0.8-0.2,1.5-0.4,2.3-0.4c0.7,0.6,1.7,0.6,2.4,0
		c0.9,0.1,1.7,0.3,2.6,0.5c0.4,0.8,1.3,1.2,2.2,0.9c0.7,0.4,1.3,0.8,2,1.3c0.1,0.9,0.8,1.6,1.7,1.7c0.6,0.7,1,1.4,1.4,2.2
		c-0.3,0.9,0.1,1.8,0.9,2.2c0.2,0.8,0.4,1.5,0.4,2.3c-0.6,0.7-0.6,1.7,0,2.4c-0.1,0.9-0.3,1.7-0.5,2.6c-0.8,0.4-1.2,1.3-0.9,2.2
		c-0.4,0.7-0.8,1.3-1.3,2c-0.9,0.1-1.6,0.8-1.7,1.7c-0.7,0.6-1.4,1-2.2,1.4c-0.9-0.3-1.8,0.1-2.2,0.9c-0.8,0.2-1.5,0.4-2.3,0.4
		c-0.3-0.3-0.8-0.4-1.2-0.4c-0.4,0-0.9,0.2-1.2,0.4c-0.9-0.1-1.7-0.3-2.6-0.5c-0.4-0.8-1.3-1.2-2.2-0.9
		C-604.4,35.3-605,34.9-605.6,34.4L-605.6,34.4z"/>
</g>
<g>
	<path class="st0" d="M-1010.1,19c-4.1-4.1-9.5-6.3-15.2-6.3c-5.7,0-11.1,2.2-15.2,6.3s-6.3,9.5-6.3,15.2V35h7.3l1.7-3h0.7h4.7h19.7
		l1.7,3h7.3v-0.8C-1003.8,28.5-1006,23.1-1010.1,19z M-1010.1,33.5l-1.7-3h-20.1h-4.2h-2.6l-1.7,3h-4.8l0-0.5c0.2-2.6,0.8-5.1,2-7.5
		l0.2-0.5l2.9,1.7l0.8-1.4l-2.9-1.7l0.3-0.4c1.5-2.2,3.3-4,5.5-5.5l0.4-0.3l1.7,2.9l1.4-0.8l-1.7-2.9l0.5-0.2c2.3-1.2,4.9-1.8,7.5-2
		l0.5,0v3.3h1.6v-3.3l0.5,0c2.6,0.2,5.1,0.8,7.5,2l0.5,0.2l-1.7,2.9l1.4,0.8l1.7-2.9l0.4,0.3c2.2,1.5,4,3.3,5.5,5.5l0.3,0.4
		l-2.9,1.7l0.8,1.4l2.9-1.7l0.2,0.5c1.2,2.3,1.8,4.9,2,7.5l0,0.5H-1010.1z"/>
	<path class="st1" d="M-1024.4,22.7l-0.7-1.9l-0.8,1.9c-0.5,1.3-1.8,4.6-2.6,7.2l-0.6,1.7l-0.1,0.7l0,0.8c0,1,0.4,1.9,1.1,2.6
		c0.7,0.8,1.7,1.2,2.8,1.2c1.1,0,2.1-0.4,2.8-1.1c0.8-0.7,1.2-1.7,1.2-2.8c0-0.5-0.2-1.6-1-4.3l-0.1-0.4l-0.5-1.5l-0.2-0.6
		C-1023.7,24.7-1024.2,23.4-1024.4,22.7z"/>
</g>
<g>
	<path class="st0" d="M-938.9,35.3l0.2-0.5c1-2.3,1.4-4.7,1.4-7.2c0-5-1.9-9.6-5.4-13.1c-3.5-3.5-8.2-5.4-13.1-5.4
		s-9.6,1.9-13.1,5.4c-3.5,3.5-5.4,8.2-5.4,13.1c0,2.5,0.5,4.9,1.4,7.2l0.2,0.5h5.8l3.8,5.2h14.5l3.8-5.2H-938.9z M-949.5,38.9h-12.7
		l-3.8-5.2h-5.5l-0.1-0.2c-0.6-1.5-0.9-3.1-1-4.7l0-0.3h2.8v-1.7h-2.8l0-0.3c0.1-2.2,0.7-4.3,1.7-6.3l0.1-0.2l2.5,1.4l0.9-1.5
		l-2.5-1.4l0.1-0.2c1.2-1.8,2.8-3.4,4.6-4.6l0.2-0.1l1.4,2.5l1.5-0.9l-1.4-2.5l0.2-0.1c2-1,4.1-1.5,6.3-1.7l0.3,0v2.8h1.7v-2.8
		l0.3,0c2.2,0.1,4.3,0.7,6.3,1.7l0.2,0.1l-1.4,2.5l1.5,0.9l1.4-2.5l0.2,0.1c1.8,1.2,3.4,2.8,4.6,4.6l0.1,0.2l-2.5,1.4l0.9,1.5
		l2.5-1.4l0.1,0.2c1,2,1.5,4.1,1.7,6.3l0,0.3h-2.8v1.7h2.8l0,0.3c-0.1,1.6-0.4,3.2-1,4.7l-0.1,0.2h-5.7L-949.5,38.9z"/>
	<path class="st1" d="M-962.2,20.4l-1.8-0.8l0.8,1.9c0.5,1.3,1.9,4.5,3.1,7l0.7,1.6l0.4,0.6l0.6,0.6c0.7,0.7,1.7,1.1,2.7,1.1
		c1.1,0,2.1-0.4,2.8-1.1c0.8-0.7,1.2-1.8,1.2-2.8c0-1.1-0.4-2.1-1.1-2.8c-0.3-0.3-1.2-1-3.7-2.3l-0.4-0.2l-1.4-0.7l-0.5-0.3
		C-960.2,21.3-961.5,20.7-962.2,20.4z"/>
</g>
<g>
	<path class="st0" d="M-379,19.9c-4.1-4.1-9.5-6.3-15.2-6.3s-11.1,2.2-15.2,6.3s-6.3,9.5-6.3,15.2v0.8h7.3l1.7-3h0.7h4.7h19.7l1.7,3
		h7.3v-0.8C-372.7,29.4-374.9,24-379,19.9z M-379.1,34.3l-1.7-3h-20.1h-4.2h-2.6l-1.7,3h-4.8l0-0.5c0.2-2.6,0.8-5.1,2-7.5l0.2-0.5
		l2.9,1.7l0.8-1.4l-2.9-1.7l0.3-0.4c1.5-2.2,3.3-4,5.5-5.5l0.4-0.3l1.7,2.9l1.4-0.8l-1.7-2.9l0.5-0.2c2.3-1.2,4.9-1.8,7.5-2l0.5,0
		v3.3h1.6v-3.3l0.5,0c2.6,0.2,5.1,0.8,7.5,2l0.5,0.2l-1.7,2.9l1.4,0.8l1.7-2.9l0.4,0.3c2.2,1.5,4,3.3,5.5,5.5l0.3,0.4l-2.9,1.7
		l0.8,1.4l2.9-1.7l0.2,0.5c1.2,2.3,1.8,4.9,2,7.5l0,0.5H-379.1z"/>
	<path class="st1" d="M-384.8,29.8l1.6-1.2l-2-0.2c-1.4-0.1-4.9-0.4-7.7-0.4l-1.8-0.1l-0.7,0.1l-0.8,0.3c-0.9,0.3-1.7,1-2.2,1.9
		c-0.5,0.9-0.6,2-0.3,3c0.3,1,1,1.9,1.9,2.4c0.9,0.5,2,0.6,3,0.3c0.4-0.1,1.5-0.6,3.8-2.3l0.3-0.2l1.3-0.9l0.5-0.4
		C-386.5,31.2-385.4,30.3-384.8,29.8z"/>
</g>
<g>
	<path class="st0" d="M-306,23h-3c-0.6,0-1,0.3-1.3,0.8H-344c-0.4,0-0.8,0.3-0.8,0.8s0.3,0.8,0.8,0.8h33.7c0.2,0.3,0.5,0.5,0.8,0.7
		v1.3c0,0.7,0.6,1.3,1.3,1.3s1.3-0.6,1.3-1.3V26h1c0.8,0,1.5-0.7,1.5-1.5S-305.2,23-306,23z"/>
	<g>
		<path class="st1" d="M-324,19.7c-0.4-1-1.6-1.9-2.7-1.9h-9.5c-1.1,0-2.3,0.8-2.7,1.9l-1.3,3.3c-0.4,1-0.4,2.7,0,3.7l1.3,3.3
			c0.4,1,1.6,1.9,2.7,1.9h9.5c1.1,0,2.3-0.8,2.7-1.9l1.3-3.3c0.4-1,0.4-2.7,0-3.7L-324,19.7z"/>
	</g>
</g>
<g>
	<path class="st0" d="M-807.9,32.7c6.3-4,7.4-10.9,5.3-16c-2.2-5.4-7.8-8.6-13.7-7.8c-5.8,0.8-10.3,5.5-11,11.6
		c-0.5,4.9,2.3,9.8,5.6,11.6c0.6-1.1,0.6-1.1-0.3-1.9c-3.7-3.3-4.9-8.4-3-13c1.9-4.6,6.5-7.4,11.4-7c7.7,0.6,12.6,8.6,9.6,15.7
		c-1,2.3-2.5,4.1-4.7,5.4c-0.3-0.5-0.5-0.8-0.7-1.3c-0.9,1.2-1.7,2.4-2.6,3.6c1.6,0.2,3.1,0.3,4.7,0.5
		C-807.5,33.6-807.6,33.2-807.9,32.7z"/>
	<path class="st0" d="M-807.9,32.7c0.2,0.5,0.4,0.9,0.6,1.4c-1.6-0.2-3.1-0.3-4.7-0.5c0.9-1.2,1.8-2.4,2.6-3.6
		c0.3,0.5,0.5,0.9,0.7,1.3c2.2-1.3,3.7-3.1,4.7-5.4c3-7.2-1.9-15.1-9.6-15.7c-4.9-0.4-9.5,2.4-11.4,7c-1.9,4.5-0.7,9.7,3,13
		c0.9,0.8,0.9,0.8,0.3,1.9c-3.3-1.8-6.1-6.7-5.6-11.6c0.7-6.1,5.1-10.8,11-11.6c5.8-0.8,11.4,2.4,13.7,7.8
		C-800.4,21.8-801.6,28.7-807.9,32.7z"/>
	<g>
		<path class="st0" d="M-807.8,27.8c-1.5-4.9-3.1-9.7-4.6-14.6c-0.7-2.2-0.7-2.2-3.1-2c0,0,0,0-0.1,0c-1.8,5.8-3.7,11.6-5.5,17.5
			c0.5,0,0.9,0,1.3,0c0.6,0.1,0.9-0.1,1.1-0.8c0.4-1.4,0.9-2.8,1.3-4.2c0.1-0.5,0.4-0.6,0.8-0.6c1.5,0,3.1,0,4.6,0
			c0.4,0,0.6,0.1,0.8,0.6c0.3,1.1,0.7,2.2,1,3.3c0.6,1.9,0.6,1.9,2.6,1.7c0,0,0,0,0.2-0.1C-807.7,28.4-807.8,28.1-807.8,27.8z
			 M-816.9,21.4c0.8-2.7,1.6-5.3,2.4-8c0.8,2.7,1.6,5.3,2.4,8C-813.7,21.4-815.2,21.4-816.9,21.4z"/>
	</g>
	<g>
		<path class="st1" d="M-816.8,38.7c0,0.4-0.1,0.8-0.2,1.1s-0.4,0.6-0.7,0.7c-0.3,0.2-0.6,0.3-1,0.3s-0.7-0.1-1-0.3
			c-0.3-0.2-0.5-0.4-0.7-0.7s-0.2-0.7-0.2-1.1v-0.2c0-0.4,0.1-0.8,0.2-1.1c0.2-0.3,0.4-0.6,0.7-0.7c0.3-0.2,0.6-0.3,1-0.3
			c0.4,0,0.7,0.1,1,0.3s0.5,0.4,0.7,0.7s0.2,0.7,0.2,1.1V38.7z M-817.9,38.6c0-0.4-0.1-0.7-0.2-1c-0.1-0.2-0.3-0.3-0.6-0.3
			c-0.5,0-0.8,0.4-0.8,1.2l0,0.3c0,0.4,0.1,0.7,0.2,1s0.3,0.3,0.6,0.3c0.3,0,0.5-0.1,0.6-0.3s0.2-0.5,0.2-1V38.6z"/>
		<path class="st1" d="M-812.7,39.1h-1.7v1.7h-1v-4.3h2.9v0.8h-1.8v1h1.7V39.1z"/>
		<path class="st1" d="M-808.4,39.1h-1.7v1.7h-1v-4.3h2.9v0.8h-1.8v1h1.7V39.1z"/>
	</g>
</g>
<g>
	<path class="st0" d="M-231.8,29.5c0,0-1.7,0-2.5-0.8c0,0,0,0,0,0l-0.4-0.7c-0.2-0.5-0.3-1.1-0.5-1.8c-0.2-1.1-0.5-2.3-1-3.3
		c-1.1-2.2-2.2-3.3-4.3-4.3c-2.1-1-6.5-1.6-11.2-2.2l-0.1,0c-2-0.3-4.1-0.5-6-0.8c-2.3-0.4-4.2-0.1-5.6,0.9
		c-1.3,0.9-1.8,2.2-1.9,2.8c-0.9,0.7-1.6,1.8-1.9,3c-0.4,1.6-0.2,3.4,0.5,5c0.4,0.8,0.9,1.5,1.5,2.2v-2.5c0-0.1-0.1-0.2-0.1-0.3
		c-0.6-1.3-0.8-2.7-0.4-4c0.3-1.2,1-2.1,2-2.6c1-0.5,2.2-0.4,3.3,0.1c1.2,0.6,2.2,1.6,2.8,2.9c0.4,0.9,0.6,1.9,0.6,2.8h1.5
		c0-1.1-0.2-2.3-0.7-3.4c-0.7-1.5-1.7-2.6-3.1-3.4l3.7-1.6c1.2,0.2,2.4,0.3,3.6,0.5c3.2,0.4,6.4,0.8,8.7,1.4l-6.1,2
		c-0.2,0.1-0.5,0.1-0.7,0.2l-0.3,0.1l0,0c-1.4,0.7-2.4,1.9-2.8,3.6c0,0.2-0.1,0.4-0.1,0.6h1.5c0-0.1,0-0.1,0-0.2
		c0.3-1.2,1-2.1,2-2.6c0.5-0.2,1-0.3,1.5-0.3c0.6,0,1.2,0.1,1.8,0.4c1.2,0.6,2.2,1.6,2.8,2.9c0.6,1.3,0.8,2.7,0.4,4
		c-0.3,1.2-1,2.1-2.1,2.6c-2,0.9-4.6-0.3-5.9-2.7v2.5c1.2,1.3,2.8,2,4.5,2c0.7,0,1.3-0.1,2-0.4l0,0l9-4.5c0.1,0.1,0.2,0.2,0.2,0.3
		c1.2,1.2,3.4,1.2,3.5,1.2c0.4,0,0.7-0.3,0.8-0.7C-231,29.8-231.4,29.5-231.8,29.5z M-261.2,18.2c-0.6-0.1-1.2-0.1-1.7,0
		c0.2-0.2,0.4-0.4,0.6-0.6c0.7-0.5,1.7-0.8,2.9-0.8c0.4,0,0.8,0,1.2,0.1L-261.2,18.2z M-241.7,30.9c0.1-0.2,0.1-0.4,0.2-0.6
		c0.4-1.6,0.2-3.4-0.5-5c-0.8-1.6-2-2.9-3.5-3.6c0,0-0.1,0-0.1,0l4.8-1.6c1.7,0.9,2.5,1.8,3.4,3.5c0.4,0.8,0.7,1.9,0.9,2.9
		c0.1,0.6,0.3,1.1,0.4,1.6L-241.7,30.9z"/>
	<g>
		<path class="st1" d="M-252.7,34.5c-0.1,0-0.3,0-0.4,0l-1.9-0.1l1.2-1.4l-5.8-1.6l4.8-4.5l-1.7-1l1.8-0.8c0.8-0.4,1.7-0.5,2.6-0.5
			c0.8,0,1.6,0.2,2.4,0.5c1.5,0.7,2.6,1.9,2.9,3.4c0,0.1,0,0.2,0,0.3c0.2,1.5-0.3,3-1.6,4.2C-249.5,33.9-251.1,34.5-252.7,34.5
			C-252.7,34.5-252.7,34.5-252.7,34.5z"/>
		<path class="st2" d="M-252.2,24.9c0.8,0,1.5,0.1,2.2,0.4c1.4,0.6,2.4,1.7,2.7,3.1c0,0.1,0,0.2,0,0.2c0.2,1.4-0.3,2.8-1.4,3.8
			c-1.1,1-2.5,1.5-4,1.5c-0.1,0-0.3,0-0.4,0l-1.2-0.1l1.1-1.3l-5.7-1.6l4.7-4.4l-1.5-0.8l1.1-0.5C-253.8,25.1-253,24.9-252.2,24.9
			 M-252.2,24.2c-0.9,0-1.9,0.2-2.7,0.6l-1.1,0.5l-1.4,0.6l1.3,0.7l0.6,0.3l-4,3.7l-1,0.9l1.3,0.4l4.6,1.3l-0.3,0.4l-1,1.1l1.5,0.1
			l1.2,0.1c0.1,0,0.3,0,0.4,0c1.7,0,3.3-0.6,4.5-1.7c1.3-1.2,1.9-2.9,1.7-4.5c0-0.1,0-0.2,0-0.3c-0.3-1.6-1.5-3-3.1-3.7
			C-250.4,24.4-251.3,24.2-252.2,24.2L-252.2,24.2z"/>
	</g>
	<g>
		<path class="st1" d="M-267.1,32.1l1.1-1.5l-5.9-1.2l4.5-4.8l-1.7-0.8l1.7-0.9c0.9-0.5,1.9-0.7,2.9-0.7c0.7,0,1.4,0.1,2,0.3
			c1.6,0.6,2.7,1.7,3.1,3.2c0,0.1,0,0.2,0.1,0.3c0.3,1.5-0.1,3-1.3,4.3c-1.1,1.2-2.8,1.9-4.5,1.9C-265.2,32.1-267.1,32.1-267.1,32.1
			z"/>
		<path class="st2" d="M-264.5,22.5c0.6,0,1.3,0.1,1.9,0.3c1.5,0.5,2.5,1.6,2.9,2.9c0,0.1,0,0.2,0.1,0.2c0.3,1.4-0.1,2.8-1.2,3.9
			c-1.1,1.1-2.6,1.8-4.3,1.8c0,0,0,0,0,0l-1.2,0l1-1.3l-5.8-1.2l4.4-4.7l-1.5-0.7l1.1-0.5C-266.4,22.7-265.5,22.5-264.5,22.5
			 M-264.5,21.8c-1.1,0-2.1,0.3-3.1,0.8l-1.1,0.5l-1.3,0.7l1.3,0.7l0.6,0.3l-3.7,4l-0.9,1l1.3,0.3l4.7,1l-0.3,0.4l-0.9,1.2l1.5,0
			l1.2,0c1.9,0,3.6-0.7,4.8-2c1.2-1.3,1.7-3,1.4-4.6c0-0.1,0-0.2-0.1-0.3c-0.4-1.6-1.6-2.9-3.3-3.5
			C-263.1,21.9-263.8,21.8-264.5,21.8L-264.5,21.8z"/>
	</g>
</g>
<g>
	<g>
		<g>
			<path class="st0" d="M-174.6,28.1h-2.5c-0.2,0-0.4,0.1-0.5,0.2h-2.1c0.3-1.2,0.5-2.4,0.5-3.6c0-3.6-1.4-6.9-3.9-9.5
				c-2.5-2.5-5.9-3.9-9.5-3.9h-12.8c-0.3,0-0.6,0.3-0.6,0.6s0.3,0.6,0.6,0.6h7.1c-1.4,0.7-2.7,1.5-3.8,2.7c-2.5,2.5-3.9,5.9-3.9,9.5
				c0,3.6,1.4,6.9,3.9,9.5c2.5,2.5,5.7,3.8,9.2,3.9c0,0,0,0,0.1,0h15.2c0.1,0.1,0.3,0.2,0.5,0.2h2.5c0.3,0,0.6-0.3,0.6-0.6v-9
				C-174,28.4-174.3,28.1-174.6,28.1z M-177.8,36.8h-14.9c-6.7,0-12.1-5.4-12.1-12.1s5.4-12.1,12.1-12.1s12.1,5.4,12.1,12.1
				c0,1.2-0.2,2.3-0.5,3.4c0,0.1,0,0.1,0,0.2h-1.7c-0.3,0-0.6,0.3-0.6,0.6s0.3,0.6,0.6,0.6h5V36.8z M-175.3,37.1h-1.3v-7.8h1.3V37.1
				z"/>
		</g>
	</g>
	<g>
		<g>
			<g>
				<path class="st1" d="M-186.6,21.3C-186.7,21.3-186.7,21.3-186.6,21.3C-186.7,21.3-186.7,21.2-186.6,21.3c-1.3-2.1-3.5-3.5-6-3.5
					c-3.8,0-6.9,3.1-6.9,6.9s3.1,6.9,6.9,6.9c2.5,0,4.7-1.4,5.9-3.4c0,0,0,0,0,0c0,0,0,0,0,0c0.6-1,0.9-2.2,0.9-3.4
					S-186.1,22.3-186.6,21.3z M-192,19.1c1.6,0.2,3,1,3.9,2.3l-3.1,1.8c-0.2-0.2-0.5-0.4-0.8-0.5V19.1z M-193.3,19.1v3.6
					c-0.3,0.1-0.6,0.3-0.8,0.5l-3.1-1.8C-196.2,20.1-194.8,19.3-193.3,19.1z M-197.8,27c-0.3-0.7-0.5-1.5-0.5-2.3
					c0-0.8,0.2-1.6,0.5-2.3l3.1,1.8c0,0.2-0.1,0.3-0.1,0.5s0,0.3,0.1,0.5L-197.8,27z M-193.3,30.3c-1.6-0.2-3-1-3.9-2.3l3.1-1.8
					c0.2,0.2,0.5,0.4,0.8,0.5V30.3z M-192.6,25.6c-0.5,0-0.9-0.4-0.9-0.9s0.4-0.9,0.9-0.9s0.9,0.4,0.9,0.9S-192.1,25.6-192.6,25.6z
					 M-192,30.3v-3.6c0.3-0.1,0.6-0.3,0.8-0.5l3.1,1.8C-189,29.3-190.4,30.1-192,30.3z M-187.5,27l-3.1-1.8c0-0.2,0.1-0.3,0.1-0.5
					c0-0.2,0-0.3-0.1-0.5l3.1-1.8c0.3,0.7,0.5,1.5,0.5,2.3C-187,25.5-187.2,26.3-187.5,27z"/>
			</g>
		</g>
	</g>
	<g>
		<g>
			<g>
				<path class="st1" d="M-194.4,35.8c-0.1,0-0.1,0-0.2,0c-1.8-0.3-3.6-1.1-5.1-2.3c-1.5-1.2-2.6-2.7-3.3-4.4
					c-0.1-0.2-0.1-0.5,0-0.8c0.1-0.2,0.3-0.4,0.5-0.5c0.1-0.1,0.3-0.1,0.4-0.1c0.4,0,0.8,0.2,0.9,0.6c1.2,2.9,3.8,5,6.9,5.5
					c0.3,0,0.5,0.2,0.6,0.4s0.2,0.5,0.2,0.7C-193.5,35.5-193.9,35.8-194.4,35.8z"/>
				<path class="st2" d="M-202.1,28.1c0.2,0,0.5,0.1,0.6,0.4c1.3,3,4,5.2,7.2,5.7c0.3,0.1,0.6,0.4,0.5,0.7c-0.1,0.3-0.3,0.5-0.6,0.5
					c0,0-0.1,0-0.1,0c-1.8-0.3-3.5-1.1-4.9-2.2c-1.4-1.1-2.5-2.6-3.2-4.2c-0.1-0.3,0-0.7,0.3-0.8C-202.2,28.1-202.1,28.1-202.1,28.1
					 M-202.1,27.3c-0.2,0-0.4,0-0.5,0.1c-0.7,0.3-1,1.1-0.7,1.8c0.7,1.8,1.9,3.3,3.4,4.5c1.5,1.2,3.3,2,5.2,2.4c0.1,0,0.2,0,0.2,0
					c0.7,0,1.2-0.5,1.4-1.1c0.1-0.7-0.4-1.5-1.1-1.6c-3-0.5-5.4-2.5-6.6-5.3C-201,27.7-201.5,27.3-202.1,27.3L-202.1,27.3z"/>
			</g>
		</g>
	</g>
	<g>
		<path class="st1" d="M-167.7,29.9c-1.2-0.2-2.3,0.1-3.2,0.8c-0.9,0.7-1.4,1.6-1.3,2.6c0,0.1,0,0.1,0,0.2c0.1,1,0.7,1.9,1.7,2.4
			c1,0.5,2.2,0.7,3.3,0.3l0.8-0.3l-1-0.7l3.8-2.2l-4.1-2.2l0.9-0.8L-167.7,29.9z"/>
	</g>
</g>
<g>
	<path class="st1" d="M-514.2,26c0.7,0.7,1,1.7,0.8,2.7c-0.5,2.2-4.1,4.9-11.8,3.3c-2.9-0.6-5.1-0.3-6.4,0.9
		c-1.9,1.8-1.5,5.1-1.5,5.1c0,0.3-0.1,0.5-0.4,0.6c-0.3,0-0.5-0.1-0.6-0.4c0-0.2-0.6-3.8,1.7-6c1.6-1.5,4-1.9,7.3-1.2
		c6.9,1.5,10.2-0.8,10.6-2.5c0.3-1.1-0.5-2.1-2-2.5c-0.3-0.1-0.4-0.3-0.4-0.6c0.1-0.3,0.3-0.4,0.6-0.4
		C-515.3,25.1-514.6,25.5-514.2,26z"/>
	<path class="st0" d="M-555.8,13.1l-0.9,3.4c-0.1,0.4,0.2,0.9,0.6,1l1,0.3l0.1,0l0,0.1c0,1.4,0.9,2.7,2.3,3l7.5,1.9l0.1,0l0,0.1
		c-0.1,0.5,0.2,1,0.7,1.1l1.4,0.4c0.2,0.1,0.5,0,0.7-0.1c0.2-0.1,0.4-0.3,0.4-0.5l0-0.1l9.4,2.4l0,0l0.2,0.1l0.2-0.9l11,2.9
		c0.1,0,0.2,0,0.3,0c0.1-0.1,0.2-0.1,0.2-0.2l0.4-1.6l3.5,0.9c0.1,0,0.2,0,0.3,0c0.1-0.1,0.2-0.1,0.2-0.3l0.3-1l0.2-0.8l0.3-1
		c0-0.1,0-0.2,0-0.3c-0.1-0.1-0.1-0.2-0.2-0.2l-3.5-0.9l0.4-1.6c0.1-0.2-0.1-0.4-0.3-0.5l-11-2.9l0.2-0.9l-0.2-0.1l0,0l-9.4-2.4v0
		l0-0.1c0.1-0.5-0.2-1-0.7-1.1l-1.4-0.4c-0.5-0.1-1,0.2-1.2,0.6l0,0.1l-0.1,0c-4.2-1.1-5.1-1.3-5.3-1.4l0,0l-2.2-0.6
		c-0.8-0.2-1.6-0.1-2.3,0.3c-0.5,0.3-0.9,0.7-1.1,1.2l0,0.1l-1.1-0.3C-555.3,12.4-555.7,12.7-555.8,13.1z M-520,25.3l0.5-2.1
		l3.1,0.8l-0.5,2.1L-520,25.3z M-544.4,23l2.5-9.6c0-0.1,0.1-0.1,0.2-0.1l1.4,0.4c0,0,0.1,0,0.1,0.1c0,0,0,0,0,0c0,0,0,0.1,0,0.1
		l-0.1,0.4l0,0l0,0l-0.6,2.1c-0.1,0.2,0.1,0.4,0.3,0.5c0.2,0.1,0.4-0.1,0.5-0.3l0.5-1.8l8.9,2.3L-531,18l0,0l0,0l11.3,2.9l-1.2,4.5
		l-0.4,1.7l-10.8-2.8l0,0l-0.5-0.1l-0.2,0.9l-8.9-2.3l0,0l0.5-2c0.1-0.2-0.1-0.4-0.3-0.5c-0.2-0.1-0.4,0.1-0.5,0.3l-0.7,2.8
		c0,0,0,0.1-0.1,0.1c0,0-0.1,0-0.1,0l-1.4-0.4c0,0-0.1,0-0.1-0.1C-544.5,23.1-544.5,23-544.4,23z M-544,13.8L-544,13.8l1,0.2
		l-2.1,7.9l0,0.1l-1-0.3L-544,13.8z M-545.9,13.3L-545.9,13.3l1.1,0.2l-2.1,7.9l0,0.1l-1.1-0.3L-545.9,13.3z M-548,12.8L-548,12.8
		l1.3,0.2l-2.1,7.9l0,0.1l-1.3-0.3L-548,12.8z M-554.2,17.3l1-3.7c0.3-1.2,1.5-1.9,2.7-1.6l0.4,0.1l-0.9,3.3c0,0.1,0,0.2,0,0.3
		c0.1,0.1,0.1,0.2,0.2,0.2c0.1,0,0.2,0,0.3,0c0.1-0.1,0.2-0.1,0.2-0.3l0.8-3.3l0-0.1l0.5,0.1l0.1,0l-2.1,7.9l0,0.1l-1.8-0.5
		c-0.6-0.2-1.1-0.5-1.4-1C-554.3,18.4-554.3,17.8-554.2,17.3z M-555.9,16.6l0.9-3.3l0.9,0.2l0.1,0l-0.8,3.3l0,0.1L-555.9,16.6
		L-555.9,16.6z"/>
</g>
<path class="st0" d="M-97.5,29.5c0,0-1.7,0-2.5-0.8c0,0,0,0,0,0l-0.4-0.7c-0.2-0.5-0.3-1.1-0.5-1.8c-0.2-1.1-0.5-2.3-1-3.3
	c-1.1-2.2-2.2-3.3-4.3-4.3c-2.1-1-6.5-1.6-11.2-2.2l-0.1,0c-2-0.3-4.1-0.5-6-0.8c-2.3-0.4-4.2-0.1-5.6,0.9c-1.3,0.9-1.8,2.2-1.9,2.8
	c-0.9,0.7-1.6,1.8-1.9,3c-0.4,1.6-0.2,3.4,0.5,5c1.2,2.5,3.5,4.2,6,4.2c0.7,0,1.3-0.1,2-0.4l0,0l5.4-2.7c0.1,0.7,0.3,1.3,0.6,1.9
	c1.2,2.5,3.5,4.2,6,4.2c0.7,0,1.3-0.1,2-0.4l0,0l9-4.5c0.1,0.1,0.2,0.2,0.2,0.3c1.2,1.2,3.4,1.2,3.5,1.2c0.4,0,0.7-0.3,0.8-0.7
	C-96.8,29.8-97.1,29.5-97.5,29.5z M-117.3,25.5c0.3-1.2,1-2.1,2-2.6c0.5-0.2,1-0.3,1.5-0.3c0.6,0,1.2,0.1,1.8,0.4
	c1.2,0.6,2.2,1.6,2.8,2.9c0.6,1.3,0.8,2.7,0.4,4c-0.3,1.2-1,2.1-2.1,2.6c-2.1,1-4.8-0.4-6.1-3C-117.5,28.2-117.7,26.8-117.3,25.5z
	 M-107.3,30.3c0.4-1.6,0.2-3.4-0.5-5c-0.8-1.6-2-2.9-3.5-3.6c0,0-0.1,0-0.1,0l4.8-1.6c1.7,0.9,2.5,1.8,3.4,3.5
	c0.4,0.8,0.7,1.9,0.9,2.9c0.1,0.6,0.3,1.1,0.4,1.6l-5.5,2.8C-107.4,30.7-107.4,30.5-107.3,30.3z M-127,18.2c-0.6-0.1-1.2-0.1-1.7,0
	c0.2-0.2,0.4-0.4,0.6-0.6c0.7-0.5,1.7-0.8,2.9-0.8c0.4,0,0.8,0,1.2,0.1L-127,18.2z M-126,20c1.2,0.6,2.2,1.6,2.8,2.9
	c0.6,1.3,0.8,2.7,0.4,4c-0.3,1.2-1,2.1-2.1,2.6c-2.1,1-4.8-0.4-6.1-3c-0.6-1.3-0.8-2.7-0.4-4c0.3-1.2,1-2.1,2-2.6
	C-128.3,19.5-127.1,19.5-126,20z M-118.8,25.2c-0.1,0.4-0.2,0.9-0.2,1.4l-2.5,1.3c0.1-0.2,0.1-0.4,0.2-0.6c0.4-1.6,0.2-3.4-0.5-5
	c-0.7-1.5-1.7-2.6-3.1-3.4l3.7-1.6c1.2,0.2,2.4,0.3,3.6,0.5c3.2,0.4,6.4,0.8,8.7,1.4l-6.1,2c-0.2,0.1-0.5,0.1-0.7,0.2l-0.3,0.1l0,0
	C-117.4,22.3-118.4,23.5-118.8,25.2z"/>
<g>
	<g>
		<path class="st1" d="M-666.7,12.2h-5.4c-0.5,0-0.9,0.2-1.1,0.6c-0.2,0.4-0.2,0.9,0,1.3l5.6,10.2c0.2,0.4,0.5,0.6,0.9,0.6
			c0.1,0,0.2,0,0.3,0c0.5-0.1,0.8-0.5,0.8-1V13.2C-665.6,12.7-666.1,12.2-666.7,12.2L-666.7,12.2z M-666.8,23.2l-5.3-9.7
			c0,0,0,0,0-0.1c0,0,0.1,0,0.1,0h5.2V23.2L-666.8,23.2z"/>
	</g>
	<path class="st0" d="M-666.2,9.3h-6.7c-1.4,0-2.7,0.5-3.7,1.5l-2.5,2.5l-1.5-1.5c0.2-0.2,0.2-0.6,0-0.8c-0.2-0.2-0.6-0.2-0.9,0
		l-4.1,4.1c-0.2,0.2-0.2,0.6,0,0.9c0.1,0.1,0.3,0.2,0.4,0.2c0.1,0,0.3,0,0.4-0.1l1.5,1.5l-1.7,1.7c-1,1-1.5,2.3-1.5,3.7v13.9
		c0,1.9,1.6,3.5,3.5,3.5h16.9c1.9,0,3.5-1.6,3.5-3.5V25.1V17v-4.2C-662.7,10.8-664.3,9.3-666.2,9.3z M-684,15.1l2.5-2.5l1.5,1.5
		l-2.5,2.5L-684,15.1z M-663.9,36.9c0,1.3-1,2.3-2.3,2.3h-16.9c-1.3,0-2.3-1-2.3-2.3V23c0-1.1,0.4-2.1,1.2-2.9l8.4-8.4
		c0.8-0.8,1.8-1.2,2.9-1.2h6.7c1.3,0,2.3,1,2.3,2.3V17v10.1V36.9z"/>
	<g>
		<path class="st1" d="M-682.7,29.5c-0.3,0-0.6,0.3-0.6,0.6v6.1c0,0.3,0.3,0.6,0.6,0.6c0.3,0,0.6-0.3,0.6-0.6v-6.1
			C-682,29.7-682.3,29.5-682.7,29.5L-682.7,29.5z"/>
	</g>
</g>
<g>
	<g>
		<path class="st1" d="M-47.6,12.2H-53c-0.6,0-1.1,0.5-1.1,1.1v10.5c0,0.5,0.3,0.9,0.8,1c0.1,0,0.2,0,0.3,0c0.4,0,0.7-0.2,0.9-0.6
			l5.6-10.2c0.2-0.4,0.2-0.9,0-1.3C-46.7,12.4-47.1,12.2-47.6,12.2L-47.6,12.2z M-52.8,23.2v-9.8h5.2c0,0,0.1,0,0.1,0
			c0,0,0,0.1,0,0.1L-52.8,23.2L-52.8,23.2z"/>
	</g>
	<path class="st0" d="M-57,12.8V17v8.1v11.8c0,1.9,1.6,3.5,3.5,3.5h16.9c1.9,0,3.5-1.6,3.5-3.5V23c0-1.4-0.5-2.7-1.5-3.7l-1.7-1.7
		l1.5-1.5c0.1,0.1,0.2,0.1,0.4,0.1c0.2,0,0.3-0.1,0.4-0.2c0.2-0.2,0.2-0.6,0-0.9l-4.1-4.1c-0.2-0.2-0.6-0.2-0.9,0
		c-0.2,0.2-0.2,0.6,0,0.8l-1.5,1.5l-2.5-2.5c-1-1-2.3-1.5-3.7-1.5h-6.7C-55.4,9.3-57,10.8-57,12.8z M-37.2,16.6l-2.5-2.5l1.5-1.5
		l2.5,2.5L-37.2,16.6z M-55.8,27.1V17v-4.2c0-1.3,1-2.3,2.3-2.3h6.7c1.1,0,2.1,0.4,2.9,1.2l8.4,8.4c0.8,0.8,1.2,1.8,1.2,2.9v13.9
		c0,1.3-1,2.3-2.3,2.3h-16.9c-1.3,0-2.3-1-2.3-2.3V27.1z"/>
	<g>
		<path class="st1" d="M-37,29.5c-0.3,0-0.6,0.3-0.6,0.6v6.1c0,0.3,0.3,0.6,0.6,0.6s0.6-0.3,0.6-0.6v-6.1
			C-36.4,29.7-36.7,29.5-37,29.5L-37,29.5z"/>
	</g>
</g>
<g>
	<line class="st3" x1="-465.5" y1="14.3" x2="-465.5" y2="30"/>
	<rect x="-471.3" y="9.9" class="st0" width="11.7" height="3.6"/>
	<rect x="-473.7" y="10.6" class="st0" width="11.7" height="2.2"/>
	<g>
		<path class="st4" d="M-454.5,13.8h-9.3c1.7,0.2,3.4,0.8,5,1.7c1.8,1.1,3.3,2.6,4.4,4.4c2.4,4,2.5,9,0.2,13
			c-2.3,4-6.6,6.5-11.2,6.6c0,0,0,0,0,0c-2.3,0-4.6-0.6-6.6-1.8c-1.8-1.1-3.3-2.6-4.4-4.4c-3.1-5.1-2.3-11.6,1.9-15.8
			c2.1-2.1,4.7-3.3,7.5-3.7h-9.4c-1.1,0-2,0.9-2,2v22c0,1.1,0.9,2,2,2h22c1.1,0,2-0.9,2-2v-22C-452.5,14.7-453.4,13.8-454.5,13.8z"
			/>
		<path class="st0" d="M-467.1,13.8h3.3C-464.9,13.6-466,13.6-467.1,13.8z"/>
		<path class="st0" d="M-476.5,33.2c1.1,1.8,2.6,3.3,4.4,4.4c2,1.2,4.3,1.8,6.6,1.8c0,0,0,0,0,0c4.6,0,8.9-2.5,11.2-6.6
			c2.3-4,2.2-9-0.2-13c-1.1-1.8-2.6-3.3-4.4-4.4c-1.6-0.9-3.3-1.5-5-1.7h-3.3c-2.8,0.4-5.4,1.6-7.5,3.7
			C-478.8,21.7-479.6,28.1-476.5,33.2z M-465.5,14.8C-465.5,14.8-465.5,14.8-465.5,14.8c2.1,0,4.3,0.6,6.1,1.7c1.6,1,3,2.4,4,4
			c2.8,4.7,2.1,10.6-1.8,14.4c-3.8,3.8-9.8,4.6-14.4,1.8c-1.6-1-3-2.4-4-4c-2.2-3.6-2.2-8.2-0.2-11.9
			C-473.6,17.1-469.7,14.8-465.5,14.8z"/>
	</g>
	<path class="st5" d="M-464.3,32.6h-2.4c-0.6,0-1-0.4-1-1V13.9c0-0.6,0.4-1,1-1h2.4c0.6,0,1,0.4,1,1v17.7
		C-463.3,32.1-463.8,32.6-464.3,32.6z"/>
	<rect x="-467.3" y="30" class="st0" width="3.6" height="2.2"/>
	<polygon class="st0" points="-463.7,18.7 -465.5,18 -467.3,18.7 -467.3,14 -463.7,14 	"/>
	<path class="st5" d="M-467.7,20.2c0-1.2,1-2.2,2.2-2.2s2.2,1,2.2,2.2"/>
	<path class="st0" d="M-468,24.4h-1.1c-0.6,0-1.1-0.5-1.1-1.1V10h0.6v13.3c0,0.3,0.2,0.5,0.5,0.5h1.1V24.4z"/>
	<rect x="-470.4" y="10.6" class="st0" width="9.9" height="4.5"/>
</g>
<g id="Oil">
	<path class="st0" d="M34.6,24.4l-7.7-8.6v-5c0-0.9-0.7-1.6-1.6-1.6h-6.2c-0.9,0-1.6,0.7-1.6,1.6v28c0,0.9,0.7,1.6,1.6,1.6h14.5
		c0.9,0,1.6-0.7,1.6-1.6V26.1C35.2,25.5,35,24.9,34.6,24.4z M18.6,14.4h7.3v1h-7.3V14.4z M18.6,10.8c0-0.3,0.2-0.5,0.5-0.5h6.2
		c0.3,0,0.5,0.2,0.5,0.5v2.6h-1v-1h-1v1h-1v-1h-1v1h-1v-1h-1v1h-1V10.8z M34.2,38.8c0,0.3-0.2,0.5-0.5,0.5H19.1
		c-0.3,0-0.5-0.2-0.5-0.5V16.5h7.6l7.6,8.6c0.3,0.3,0.4,0.7,0.4,1V38.8z"/>
	<g>
		<path class="st1" d="M24.8,18.6h-3c-0.6,0-1,0.5-1,1v16.6c0,0.6,0.5,1,1,1h9.3c0.6,0,1-0.5,1-1v-9.5c0-0.3-0.1-0.5-0.3-0.7
			l-6.3-7.1C25.3,18.7,25.1,18.6,24.8,18.6L24.8,18.6z M21.7,36.3V19.6h3l6.3,7.1v9.5H21.7L21.7,36.3z"/>
	</g>
</g>
</svg>
