<?xml version="1.0" encoding="utf-8"?>
<!-- Generator: Adobe Illustrator 24.1.1, SVG Export Plug-In . SVG Version: 6.00 Build 0)  -->
<svg version="1.1" id="Layer_1" xmlns="http://www.w3.org/2000/svg" xmlns:xlink="http://www.w3.org/1999/xlink" x="0px" y="0px"
	 viewBox="0 0 50 50" style="enable-background:new 0 0 50 50;" xml:space="preserve">
<style type="text/css">
	.st0{fill:#ffffff;}
	.st1{fill:#FF0000;}
	.st2{fill:#FFFFFF;}
	.st3{fill:none;stroke:#FF0000;stroke-width:0.75;stroke-linecap:round;stroke-miterlimit:10;}
	.st4{fill:#eaeaea;}
	.st5{fill:none;stroke:#ffffff;stroke-miterlimit:10;}
</style>
<g>
	<g>
		<g>
			<path class="st0" d="M35.4,28.1h-2.5c-0.2,0-0.4,0.1-0.5,0.2h-2.1c0.3-1.2,0.5-2.4,0.5-3.6c0-3.6-1.4-6.9-3.9-9.5
				c-2.5-2.5-5.9-3.9-9.5-3.9H4.6C4.3,11.3,4,11.6,4,12c0,0.3,0.3,0.6,0.6,0.6h7.1c-1.4,0.7-2.7,1.5-3.8,2.7C5.4,17.8,4,21.2,4,24.7
				c0,3.6,1.4,6.9,3.9,9.5c2.5,2.5,5.7,3.8,9.2,3.9c0,0,0,0,0.1,0h15.2c0.1,0.1,0.3,0.2,0.5,0.2h2.5c0.3,0,0.6-0.3,0.6-0.6v-9
				C36,28.4,35.7,28.1,35.4,28.1z M32.3,36.8H17.4c-6.7,0-12.1-5.4-12.1-12.1s5.4-12.1,12.1-12.1S29.5,18,29.5,24.7
				c0,1.2-0.2,2.3-0.5,3.4c0,0.1,0,0.1,0,0.2h-1.7c-0.3,0-0.6,0.3-0.6,0.6s0.3,0.6,0.6,0.6h5V36.8z M34.8,37.1h-1.3v-7.7h1.3V37.1z"
				/>
		</g>
	</g>
	<g>
		<g>
			<g>
				<path class="st1" d="M23.4,21.3C23.3,21.3,23.3,21.3,23.4,21.3C23.3,21.3,23.3,21.3,23.4,21.3c-1.3-2.1-3.5-3.5-6-3.5
					c-3.8,0-6.9,3.1-6.9,6.9s3.1,6.9,6.9,6.9c2.5,0,4.7-1.4,5.9-3.4c0,0,0,0,0,0c0,0,0,0,0,0c0.6-1,0.9-2.2,0.9-3.4
					S23.9,22.3,23.4,21.3z M18,19.1c1.6,0.2,3,1,3.9,2.3l-3.1,1.8c-0.2-0.2-0.5-0.4-0.8-0.5V19.1z M16.8,19.1v3.6
					c-0.3,0.1-0.6,0.3-0.8,0.5l-3.1-1.8C13.8,20.2,15.2,19.3,16.8,19.1z M12.2,27c-0.3-0.7-0.5-1.5-0.5-2.3c0-0.8,0.2-1.6,0.5-2.3
					l3.1,1.8c0,0.2-0.1,0.3-0.1,0.5s0,0.3,0.1,0.5L12.2,27z M16.7,30.3c-1.6-0.2-3-1-3.9-2.3l3.1-1.8c0.2,0.2,0.5,0.4,0.8,0.5V30.3z
					 M17.4,25.6c-0.5,0-0.9-0.4-0.9-0.9s0.4-0.9,0.9-0.9s0.9,0.4,0.9,0.9S17.9,25.6,17.4,25.6z M18,30.3v-3.6
					c0.3-0.1,0.6-0.3,0.8-0.5l3.1,1.8C21,29.3,19.6,30.1,18,30.3z M22.5,27l-3.1-1.8c0-0.2,0.1-0.3,0.1-0.5c0-0.2,0-0.3-0.1-0.5
					l3.1-1.8c0.3,0.7,0.5,1.5,0.5,2.3C23,25.5,22.8,26.3,22.5,27z"/>
			</g>
		</g>
	</g>
	<g>
		<g>
			<g>
				<path class="st1" d="M15.6,35.8c-0.1,0-0.1,0-0.2,0c-1.9-0.3-3.6-1.1-5.1-2.3c-1.5-1.2-2.6-2.7-3.3-4.4c-0.2-0.5,0-1.1,0.5-1.3
					c0.1-0.1,0.3-0.1,0.4-0.1c0.4,0,0.8,0.2,0.9,0.6c1.2,2.9,3.8,5,6.9,5.5c0.3,0,0.5,0.2,0.6,0.4s0.2,0.5,0.2,0.7
					C16.5,35.5,16.1,35.8,15.6,35.8z"/>
				<path class="st2" d="M7.9,28.1c0.2,0,0.5,0.1,0.6,0.4c1.3,3,4,5.2,7.2,5.7c0.3,0.1,0.6,0.4,0.5,0.7c-0.1,0.3-0.3,0.5-0.6,0.5
					c0,0-0.1,0-0.1,0c-1.8-0.3-3.5-1.1-4.9-2.2c-1.4-1.1-2.5-2.6-3.2-4.2c-0.1-0.3,0-0.7,0.3-0.8C7.8,28.1,7.9,28.1,7.9,28.1
					 M7.9,27.4c-0.2,0-0.4,0-0.5,0.1c-0.7,0.3-1,1.1-0.7,1.8c0.7,1.8,1.9,3.3,3.4,4.5c1.5,1.2,3.3,2,5.2,2.4c0.1,0,0.2,0,0.2,0
					c0.7,0,1.2-0.5,1.4-1.1c0.1-0.7-0.4-1.5-1.1-1.6c-3-0.5-5.4-2.5-6.6-5.3C9,27.7,8.5,27.4,7.9,27.4L7.9,27.4z"/>
			</g>
		</g>
	</g>
	<g>
		<path class="st1" d="M42.3,29.9c-1.2-0.2-2.3,0.1-3.2,0.8c-0.9,0.7-1.4,1.6-1.3,2.6c0,0.1,0,0.1,0,0.2c0.1,1,0.7,1.9,1.7,2.4
			c1,0.5,2.2,0.7,3.3,0.3l0.8-0.3l-1-0.7l3.8-2.2l-4.1-2.2l0.9-0.8L42.3,29.9z"/>
	</g>
</g>
</svg>
