<?xml version="1.0" encoding="utf-8"?>
<!-- Generator: Adobe Illustrator 24.1.1, SVG Export Plug-In . SVG Version: 6.00 Build 0)  -->
<svg version="1.1" id="Layer_1" xmlns="http://www.w3.org/2000/svg" xmlns:xlink="http://www.w3.org/1999/xlink" x="0px" y="0px"
	 viewBox="0 0 50 50" style="enable-background:new 0 0 50 50;" xml:space="preserve">
<style type="text/css">
	.st0{fill:#ffffff;}
	.st1{fill:#FF0000;}
	.st2{fill:#FFFFFF;}
	.st3{fill:none;stroke:#FF0000;stroke-width:0.75;stroke-linecap:round;stroke-miterlimit:10;}
	.st4{fill:#eaeaea;}
	.st5{fill:none;stroke:#ffffff;stroke-miterlimit:10;}
</style>
<g>
	<g>
		<path class="st0" d="M38.5,34.8h-29c-0.3,0-0.5-0.2-0.5-0.5v-7H4v-1h5.5c0.3,0,0.5,0.2,0.5,0.5v7h28v-7c0-0.3,0.2-0.5,0.5-0.5
			l5.6,0h0c0.1,0,0.2,0,0.3,0.1l1,0.6l1.4-2.2l-2.4-1.5h-5.9c-0.3,0-0.5-0.2-0.5-0.5v-7H10v7c0,0.3-0.2,0.5-0.5,0.5H4v-1h5v-7
			c0-0.3,0.2-0.5,0.5-0.5h29c0.3,0,0.5,0.2,0.5,0.5v7h5.5c0.1,0,0.2,0,0.3,0.1l3,1.9c0.1,0.1,0.2,0.2,0.2,0.3c0,0.1,0,0.3-0.1,0.4
			l-2,3c-0.2,0.2-0.5,0.3-0.7,0.1L44,27.3l-5,0v7C39,34.6,38.8,34.8,38.5,34.8z"/>
	</g>
	<g>
		<circle class="st1" cx="13.8" cy="20.1" r="1.8"/>
		<circle class="st1" cx="18.9" cy="20.1" r="1.8"/>
		<circle class="st1" cx="24" cy="20.1" r="1.8"/>
		<circle class="st1" cx="29.1" cy="20.1" r="1.8"/>
		<circle class="st1" cx="34.2" cy="20.1" r="1.8"/>
	</g>
	<g>
		<circle class="st1" cx="13.8" cy="30.1" r="1.8"/>
		<circle class="st1" cx="18.9" cy="30.1" r="1.8"/>
		<circle class="st1" cx="24" cy="30.1" r="1.8"/>
		<circle class="st1" cx="29.1" cy="30.1" r="1.8"/>
		<circle class="st1" cx="34.2" cy="30.1" r="1.8"/>
	</g>
	<g>
		<circle class="st1" cx="16.4" cy="25.1" r="1.8"/>
		<circle class="st1" cx="21.5" cy="25.1" r="1.8"/>
		<circle class="st1" cx="26.5" cy="25.1" r="1.8"/>
		<circle class="st1" cx="31.6" cy="25.1" r="1.8"/>
	</g>
</g>
</svg>
