<?xml version="1.0" encoding="utf-8"?>
<!-- Generator: Adobe Illustrator 24.1.1, SVG Export Plug-In . SVG Version: 6.00 Build 0)  -->
<svg version="1.1" id="Layer_1" xmlns="http://www.w3.org/2000/svg" xmlns:xlink="http://www.w3.org/1999/xlink" x="0px" y="0px"
	 viewBox="0 0 50 50" style="enable-background:new 0 0 50 50;" xml:space="preserve">
<style type="text/css">
	.st0{fill:#ffffff;}
	.st1{fill:#FF0000;}
	.st2{fill:#FFFFFF;}
	.st3{fill:none;stroke:#FF0000;stroke-width:0.75;stroke-linecap:round;stroke-miterlimit:10;}
	.st4{fill:#eaeaea;}
	.st5{fill:none;stroke:#ffffff;stroke-miterlimit:10;}
</style>
<g>
	<path class="st0" d="M42.5,31.9V24c0-0.1,0-0.2-0.1-0.3l-1.7-3.9c-0.1-0.2-0.3-0.4-0.6-0.4h-2.9c-0.4,0-0.7,0.3-0.7,0.7v2.3h-1.9
		v-2c0-0.4-0.3-0.7-0.7-0.7h-3.6V16c0-0.4-0.3-0.7-0.7-0.7h-6.3v-2.1h6.3c0.4,0,0.7-0.3,0.7-0.7s-0.3-0.7-0.7-0.7H15.8
		c-0.4,0-0.7,0.3-0.7,0.7s0.3,0.7,0.7,0.7h6.3v2.1h-6.3c-0.4,0-0.7,0.3-0.7,0.7v1.5h-3.1c-0.4,0-0.7,0.3-0.7,0.7v6.8H8.8v-6.8
		c0-0.4-0.3-0.7-0.7-0.7s-0.7,0.3-0.7,0.7V33c0,0.4,0.3,0.7,0.7,0.7s0.7-0.3,0.7-0.7v-6.8h2.6V33c0,0.4,0.3,0.7,0.7,0.7h4.7l4.8,4
		c0.1,0.1,0.3,0.2,0.4,0.2H34c0.4,0,0.7-0.3,0.7-0.7v-3.7h1.9v2.3c0,0.4,0.3,0.7,0.7,0.7h2.9c0.3,0,0.5-0.2,0.6-0.4l1.7-3.9
		C42.5,32,42.5,32,42.5,31.9z M41.1,31.8l-1.5,3.3h-1.8v-2.3c0-0.4-0.3-0.7-0.7-0.7H34c-0.4,0-0.7,0.3-0.7,0.7v3.7h-11l-4.8-4
		c-0.1-0.1-0.3-0.2-0.4-0.2h-4.3V18.8h3.1c0.4,0,0.7-0.3,0.7-0.7v-1.5H29v3.7c0,0.4,0.3,0.7,0.7,0.7h3.6v2c0,0.4,0.3,0.7,0.7,0.7
		h3.2c0.4,0,0.7-0.3,0.7-0.7v-2.3h1.8l1.5,3.5L41.1,31.8z"/>
</g>
</svg>
