<?xml version="1.0" encoding="utf-8"?>
<!-- Generator: Adobe Illustrator 24.1.1, SVG Export Plug-In . SVG Version: 6.00 Build 0)  -->
<svg version="1.1" id="Layer_1" xmlns="http://www.w3.org/2000/svg" xmlns:xlink="http://www.w3.org/1999/xlink" x="0px" y="0px"
	 viewBox="0 0 50 50" style="enable-background:new 0 0 50 50;" xml:space="preserve">
<style type="text/css">
	.st0{fill:#ffffff;}
	.st1{fill:#FF0000;}
	.st2{fill:#FFFFFF;}
	.st3{fill:none;stroke:#FF0000;stroke-width:0.75;stroke-linecap:round;stroke-miterlimit:10;}
	.st4{fill:#eaeaea;}
	.st5{fill:none;stroke:#ffffff;stroke-miterlimit:10;}
</style>
<g>
	<g>
		<g>
			<path class="st0" d="M25.5,12C19,12,5.7,18,5.7,24.8S19,37.7,25.5,37.7s19.8-5.9,19.8-12.8S32,12,25.5,12z M25.5,36.5L25.5,36.5
				c-6.5,0-18.7-6-18.7-11.6S19,13.2,25.5,13.2s18.6,6,18.6,11.6S32,36.5,25.5,36.5z"/>
		</g>
	</g>
	<g>
		<g>
			<path class="st0" d="M11.4,22.1L11.4,22.1c-1.5,0-2.7,1.2-2.7,2.7s1.2,2.7,2.7,2.7s2.7-1.2,2.7-2.7
				C14.1,23.3,12.9,22.1,11.4,22.1z M11.4,26.4L11.4,26.4c-0.9,0-1.5-0.7-1.5-1.5s0.7-1.5,1.5-1.5s1.5,0.7,1.5,1.5
				C12.9,25.7,12.2,26.4,11.4,26.4z"/>
		</g>
	</g>
	<g>
		<g>
			<path class="st0" d="M39.6,22.1c-1.5,0-2.7,1.2-2.7,2.7s1.2,2.7,2.7,2.7c1.5,0,2.7-1.2,2.7-2.7l0,0
				C42.3,23.3,41.1,22.1,39.6,22.1z M39.6,26.4L39.6,26.4c-0.9,0-1.5-0.7-1.5-1.5s0.7-1.5,1.5-1.5s1.5,0.7,1.5,1.5
				C41.2,25.7,40.5,26.4,39.6,26.4z"/>
		</g>
	</g>
	<g>
		<g>
			<path class="st1" d="M25.5,16.5L25.5,16.5c-4.6,0-8.4,3.7-8.4,8.4c0,4.6,3.7,8.4,8.4,8.4c4.6,0,8.4-3.7,8.4-8.4c0,0,0,0,0,0
				C33.9,20.2,30.1,16.5,25.5,16.5z M32.7,24.8c0,4-3.2,7.2-7.2,7.2c-4,0-7.2-3.2-7.2-7.2s3.2-7.2,7.2-7.2S32.7,20.9,32.7,24.8
				L32.7,24.8z"/>
		</g>
	</g>
</g>
</svg>
