<?xml version="1.0" encoding="utf-8"?>
<!-- Generator: Adobe Illustrator 24.1.1, SVG Export Plug-In . SVG Version: 6.00 Build 0)  -->
<svg version="1.1" id="Layer_1" xmlns="http://www.w3.org/2000/svg" xmlns:xlink="http://www.w3.org/1999/xlink" x="0px" y="0px"
	 viewBox="0 0 50 50" style="enable-background:new 0 0 50 50;" xml:space="preserve">
<style type="text/css">
	.st0{fill:#ffffff;}
	.st1{fill:#FF0000;}
	.st2{fill:#FFFFFF;}
	.st3{fill:none;stroke:#FF0000;stroke-width:0.75;stroke-linecap:round;stroke-miterlimit:10;}
	.st4{fill:#eaeaea;}
	.st5{fill:none;stroke:#ffffff;stroke-miterlimit:10;}
</style>
<g>
	<path class="st0" d="M44,23h-3c-0.6,0-1,0.3-1.3,0.8H6c-0.4,0-0.8,0.3-0.8,0.8s0.3,0.8,0.8,0.8h33.7c0.2,0.3,0.5,0.5,0.8,0.7v1.3
		c0,0.7,0.6,1.3,1.3,1.3s1.3-0.6,1.3-1.3V26h1c0.8,0,1.5-0.7,1.5-1.5S44.8,23,44,23z"/>
	<g>
		<path class="st1" d="M26,19.7c-0.4-1-1.6-1.9-2.7-1.9h-9.5c-1.1,0-2.3,0.8-2.7,1.9L9.7,23c-0.4,1-0.4,2.7,0,3.7L11,30
			c0.4,1,1.6,1.9,2.7,1.9h9.5c1.1,0,2.3-0.8,2.7-1.9l1.3-3.3c0.4-1,0.4-2.7,0-3.7L26,19.7z"/>
	</g>
</g>
</svg>
