<?xml version="1.0" encoding="utf-8"?>
<!-- Generator: Adobe Illustrator 24.1.1, SVG Export Plug-In . SVG Version: 6.00 Build 0)  -->
<svg version="1.1" id="Layer_1" xmlns="http://www.w3.org/2000/svg" xmlns:xlink="http://www.w3.org/1999/xlink" x="0px" y="0px"
	 viewBox="0 0 50 50" style="enable-background:new 0 0 50 50;" xml:space="preserve">
<style type="text/css">
	.st0{fill:#ffffff;}
	.st1{fill:#FF0000;}
	.st2{fill:#FFFFFF;}
	.st3{fill:none;stroke:#FF0000;stroke-width:0.75;stroke-linecap:round;stroke-miterlimit:10;}
	.st4{fill:#eaeaea;}
	.st5{fill:none;stroke:#ffffff;stroke-miterlimit:10;}
</style>
<g>
	<path class="st1" d="M45.8,26c0.7,0.7,1,1.7,0.8,2.7c-0.5,2.2-4.1,4.9-11.8,3.3c-2.9-0.6-5.1-0.3-6.4,0.9C26.5,34.7,27,38,27,38
		c0,0.3-0.1,0.5-0.4,0.6c-0.3,0-0.5-0.1-0.6-0.4c0-0.2-0.6-3.8,1.7-6c1.6-1.5,4-1.9,7.3-1.2c6.9,1.5,10.2-0.8,10.6-2.5
		c0.3-1.1-0.5-2.1-2-2.5c-0.3-0.1-0.4-0.3-0.4-0.6c0.1-0.3,0.3-0.4,0.6-0.4C44.7,25.1,45.4,25.5,45.8,26z"/>
	<path class="st0" d="M4.2,13.1l-0.9,3.4c-0.1,0.4,0.2,0.9,0.6,1l1,0.3l0.1,0l0,0.1c0,1.4,0.9,2.7,2.3,3l7.5,1.9l0.1,0l0,0.1
		c-0.1,0.5,0.2,1,0.7,1.1l1.4,0.4c0.2,0.1,0.5,0,0.7-0.1c0.2-0.1,0.4-0.3,0.4-0.5l0-0.1l9.4,2.4l0,0l0.2,0.1l0.2-0.9l11,2.9
		c0.1,0,0.2,0,0.3,0c0.1-0.1,0.2-0.1,0.2-0.2l0.4-1.6l3.5,0.9c0.1,0,0.2,0,0.3,0c0.1-0.1,0.2-0.1,0.2-0.3l0.3-1l0.2-0.8l0.3-1
		c0-0.1,0-0.2,0-0.3c-0.1-0.1-0.1-0.2-0.2-0.2l-3.5-0.9l0.4-1.6c0.1-0.2-0.1-0.4-0.3-0.5l-11-2.9l0.2-0.9l-0.2-0.1l0,0L20.5,14l0,0
		l0-0.1c0.1-0.5-0.2-1-0.7-1.1l-1.4-0.4c-0.5-0.1-1,0.2-1.2,0.6l0,0.1l-0.1,0c-4.2-1.1-5.1-1.3-5.3-1.4l0,0l-2.2-0.6
		c-0.8-0.2-1.6-0.1-2.3,0.3c-0.5,0.3-0.9,0.7-1.1,1.2l0,0.1l-1.1-0.3C4.7,12.4,4.3,12.7,4.2,13.1z M40,25.3l0.5-2.1l3.1,0.8
		l-0.5,2.1L40,25.3z M15.6,23l2.5-9.6c0-0.1,0.1-0.1,0.2-0.1l1.4,0.4c0,0,0.1,0,0.1,0.1c0,0,0,0,0,0c0,0,0,0.1,0,0.1l-0.1,0.4l0,0
		l0,0l-0.6,2.1c-0.1,0.2,0.1,0.4,0.3,0.5c0.2,0.1,0.4-0.1,0.5-0.3l0.5-1.8l8.9,2.3L29,18.1l0,0l0,0L40.3,21l-1.2,4.5l-0.4,1.7
		l-10.8-2.8l0,0l-0.5-0.1l-0.2,0.9l-8.9-2.3l0,0l0.5-2c0.1-0.2-0.1-0.4-0.3-0.5c-0.2-0.1-0.4,0.1-0.5,0.3l-0.7,2.8
		c0,0,0,0.1-0.1,0.1c0,0-0.1,0-0.1,0l-1.4-0.4c0,0-0.1,0-0.1-0.1C15.5,23.1,15.5,23,15.6,23z M16,13.8L16,13.8l1,0.2L15,21.9l0,0.1
		l-1-0.3L16,13.8z M14.1,13.3L14.1,13.3l1.1,0.2l-2.1,7.9l0,0.1l-1.1-0.3L14.1,13.3z M12,12.8L12,12.8l1.3,0.2l-2.1,7.9l0,0.1
		L10,20.7L12,12.8z M5.8,17.3l1-3.7c0.3-1.2,1.5-1.9,2.7-1.6l0.4,0.1L9,15.5c0,0.1,0,0.2,0,0.3c0.1,0.1,0.1,0.2,0.2,0.2
		c0.1,0,0.2,0,0.3,0c0.1-0.1,0.2-0.1,0.2-0.3l0.8-3.3l0-0.1l0.5,0.1l0.1,0l-2.1,7.9l0,0.1L7.4,20c-0.6-0.2-1.1-0.5-1.4-1
		C5.7,18.4,5.7,17.8,5.8,17.3z M4.1,16.7L5,13.3l0.9,0.2l0.1,0l-0.8,3.3l0,0.1L4.1,16.7L4.1,16.7z"/>
</g>
</svg>
