<?xml version="1.0" encoding="utf-8"?>
<!-- Generator: Adobe Illustrator 24.1.1, SVG Export Plug-In . SVG Version: 6.00 Build 0)  -->
<svg version="1.1" id="Layer_1" xmlns="http://www.w3.org/2000/svg" xmlns:xlink="http://www.w3.org/1999/xlink" x="0px" y="0px"
	 viewBox="0 0 50 50" style="enable-background:new 0 0 50 50;" xml:space="preserve">
<style type="text/css">
	.st0{fill:#ffffff;}
	.st1{fill:#FF0000;}
	.st2{fill:none;stroke:#FF0000;stroke-width:0.75;stroke-linecap:round;stroke-miterlimit:10;}
	.st3{fill:none;stroke:#ffffff;stroke-miterlimit:10;}
	.st4{fill:#FFFFFF;}
</style>
<g>
	<path class="st1" d="M37.3,29.4c2.7-2.7,2.8-7.2,0-10c0,0-0.1-0.1-0.1-0.1c-2.8-2.7-7.2-2.7-10,0l0,0c-2.8,2.8-2.8,7.2,0,10
		S34.5,32.2,37.3,29.4L37.3,29.4z M26.4,25l2.4,0c0.1,0.5,0.3,1,0.6,1.5l-1.7,1.7C26.9,27.3,26.5,26.2,26.4,25L26.4,25z M36,19.8
		l-1.7,1.7c-0.4-0.3-0.9-0.5-1.5-0.6v-2.4C34,18.6,35.1,19.1,36,19.8L36,19.8z M38.2,23.8h-2.4c-0.1-0.5-0.3-1-0.6-1.5l1.7-1.7
		C37.6,21.6,38,22.7,38.2,23.8L38.2,23.8z M30.6,22.7c0.9-0.9,2.4-0.9,3.4,0c0.9,0.9,0.9,2.4,0,3.4c-0.9,0.9-2.4,0.9-3.4,0
		c-0.4-0.4-0.7-1.1-0.7-1.7C29.9,23.8,30.1,23.2,30.6,22.7L30.6,22.7z M32.8,27.9c0.5-0.1,1-0.3,1.5-0.6L36,29
		c-0.9,0.7-2,1.2-3.2,1.3L32.8,27.9z M35.1,26.5c0.3-0.4,0.5-0.9,0.6-1.5l2.4,0c-0.1,1.2-0.6,2.3-1.3,3.2L35.1,26.5z M31.7,20.9
		c-0.5,0.1-1,0.3-1.5,0.6l-1.7-1.7c0.9-0.7,2-1.2,3.2-1.3L31.7,20.9z M29.4,22.4c-0.3,0.4-0.5,0.9-0.6,1.5h-2.4
		c0.1-1.2,0.6-2.3,1.3-3.2L29.4,22.4z M30.2,27.3c0.4,0.3,0.9,0.5,1.5,0.6v2.4c-1.2-0.1-2.3-0.6-3.2-1.3L30.2,27.3z"/>
	<path class="st0" d="M38.4,30.6c3.4-3.4,3.4-8.9,0-12.4c-3.4-3.4-8.9-3.4-12.4,0s-3.4,8.9,0,12.4c1.6,1.6,3.9,2.6,6.2,2.6
		C34.6,33.1,36.8,32.2,38.4,30.6L38.4,30.6z M24.7,24.4c0-4.2,3.4-7.6,7.6-7.6c4.2,0,7.6,3.4,7.6,7.6S36.5,32,32.3,32
		c-2,0-3.9-0.8-5.4-2.2C25.5,28.3,24.7,26.4,24.7,24.4z"/>
	<path class="st0" d="M16.3,36.8c-0.3,0-0.6,0.3-0.6,0.6s0.3,0.6,0.6,0.6l0,0h15c0,0,0,0,0.1,0c0,0,0,0,0,0c0,0,0.1,0,0.1,0
		c0,0,0,0,0,0c0,0,0.1,0,0.1,0c0,0,0,0,0,0c0,0,0,0,0.1-0.1c0,0,0,0,0,0c0.2-0.3,0.7-0.3,0.9-0.1c0,0,0.1,0.1,0.1,0.1
		c0.1,0.1,0.3,0.2,0.5,0.2c1.1-0.1,2.1-0.3,3.1-0.6c0.2-0.1,0.3-0.2,0.4-0.4c0.1-0.4,0.5-0.6,0.8-0.5c0.1,0,0.1,0,0.1,0.1
		c0.2,0.1,0.4,0.1,0.5,0c1-0.5,2-1.1,2.9-1.9c0.1-0.1,0.2-0.3,0.2-0.5c0-0.4,0.2-0.7,0.6-0.7c0.1,0,0.1,0,0.2,0
		c0.2,0,0.4-0.1,0.5-0.2c0.7-0.8,1.3-1.7,1.8-2.6c0.1-0.2,0.1-0.4,0-0.5c-0.2-0.3-0.1-0.7,0.3-0.9c0,0,0.1,0,0.1-0.1
		c0.2-0.1,0.3-0.2,0.4-0.4c0.4-1.1,0.6-2.2,0.7-3.4c0-0.2-0.1-0.4-0.2-0.5c-0.3-0.2-0.3-0.7-0.1-0.9c0,0,0.1-0.1,0.1-0.1
		c0.1-0.1,0.2-0.3,0.2-0.5c-0.1-1-0.3-2.1-0.6-3.1c-0.1-0.2-0.2-0.3-0.4-0.4c-0.4-0.1-0.6-0.5-0.5-0.8c0,0,0-0.1,0.1-0.1
		c0.1-0.2,0.1-0.4,0-0.5c-0.5-1-1.1-2-1.9-2.9c-0.1-0.1-0.3-0.2-0.5-0.2c-0.4,0-0.7-0.2-0.7-0.6c0-0.1,0-0.1,0-0.2
		c0-0.2-0.1-0.4-0.2-0.5c-0.8-0.7-1.7-1.3-2.6-1.8c-0.2-0.1-0.4-0.1-0.5,0c-0.3,0.2-0.7,0.1-0.9-0.3c0,0,0-0.1-0.1-0.1
		c-0.1-0.2-0.2-0.3-0.4-0.4c-1.1-0.4-2.2-0.6-3.4-0.7c-0.2,0-0.4,0.1-0.5,0.2c-0.2,0.3-0.7,0.3-0.9,0.1c0,0-0.1-0.1-0.1-0.1l0,0
		c0,0,0,0-0.1-0.1c0,0,0,0,0,0c-0.1,0-0.1-0.1-0.2-0.1c0,0,0,0,0,0c0,0,0,0-0.1,0l-15,0c-0.3,0-0.6,0.3-0.6,0.6s0.3,0.6,0.6,0.6l0,0
		l11.4,0c-0.1,0.1-0.2,0.2-0.3,0.2c-0.2,0.1-0.4,0.1-0.6,0c-0.2-0.1-0.4-0.1-0.5,0c-1,0.5-1.9,1.1-2.7,1.8h-5.8
		c-0.3,0-0.6,0.3-0.6,0.6c0,0.3,0.3,0.6,0.6,0.6l0,0h5.3c0,0,0,0,0,0c-0.1,0.1-0.3,0.2-0.5,0.2c-0.2,0-0.3,0-0.5,0.2l0,0
		c-0.6,0.7-1.1,1.5-1.6,2.3H10.3c-0.3,0-0.6,0.3-0.6,0.6c0,0.3,0.3,0.6,0.6,0.6l0,0l10.1,0c0,0.1,0,0.2-0.1,0.3
		c-0.1,0.2-0.2,0.3-0.4,0.4c-0.2,0.1-0.3,0.2-0.4,0.4c-0.4,1.1-0.6,2.2-0.7,3.4c0,0.2,0,0.3,0.1,0.4L7.8,23.7
		c-0.3,0-0.6,0.3-0.6,0.6c0,0.3,0.3,0.6,0.6,0.6L18.9,25c-0.1,0.1-0.2,0.3-0.2,0.4c0.1,1,0.3,2.1,0.6,3.1c0.1,0.2,0.2,0.3,0.4,0.4
		c0.4,0.1,0.6,0.5,0.5,0.8c0,0,0,0.1,0,0.1l-9.9,0c-0.3,0-0.6,0.3-0.6,0.6c0,0.3,0.3,0.6,0.6,0.6l10.1,0c0.5,0.8,1,1.6,1.6,2.3
		c0.1,0.1,0.3,0.2,0.5,0.2c0.2,0,0.4,0,0.5,0.2c0,0,0,0,0,0l-5.3,0c-0.3,0-0.6,0.3-0.6,0.6c0,0.3,0.3,0.6,0.6,0.6h5.8
		c0.8,0.6,1.6,1.2,2.4,1.6c0.2,0.1,0.4,0.1,0.5,0c0.3-0.2,0.7-0.1,0.9,0.3c0,0,0,0,0,0.1L16.3,36.8z M24.4,34
		c-0.1-0.9-0.8-1.6-1.7-1.7c-0.6-0.7-1-1.4-1.4-2.2c0.3-0.9-0.1-1.8-0.9-2.2c-0.2-0.8-0.4-1.5-0.4-2.3c0.3-0.3,0.4-0.7,0.4-1.2
		c0,0,0,0,0,0l0,0c0-0.4-0.2-0.9-0.4-1.2c0.1-0.9,0.3-1.7,0.5-2.6c0.8-0.4,1.2-1.3,0.9-2.2c0.4-0.7,0.8-1.3,1.3-2
		c0.9-0.1,1.6-0.8,1.7-1.7c0.7-0.6,1.4-1,2.2-1.4c0.9,0.3,1.8-0.1,2.2-0.9c0.8-0.2,1.5-0.4,2.3-0.4c0.7,0.6,1.7,0.6,2.4,0
		c0.9,0.1,1.7,0.3,2.6,0.5c0.4,0.8,1.3,1.2,2.2,0.9c0.7,0.4,1.3,0.8,2,1.3c0.1,0.9,0.8,1.6,1.7,1.7c0.6,0.7,1,1.4,1.4,2.2
		c-0.3,0.9,0.1,1.8,0.9,2.2c0.2,0.8,0.4,1.5,0.4,2.3c-0.6,0.7-0.6,1.7,0,2.4c-0.1,0.9-0.3,1.7-0.5,2.6c-0.8,0.4-1.2,1.3-0.9,2.2
		c-0.4,0.7-0.8,1.3-1.3,2c-0.9,0.1-1.6,0.8-1.7,1.7c-0.7,0.6-1.4,1-2.2,1.4c-0.9-0.3-1.8,0.1-2.2,0.9c-0.8,0.2-1.5,0.4-2.3,0.4
		c-0.3-0.3-0.8-0.4-1.2-0.4c-0.4,0-0.9,0.2-1.2,0.4c-0.9-0.1-1.7-0.3-2.6-0.5c-0.4-0.8-1.3-1.2-2.2-0.9C25.6,34.9,25,34.5,24.4,34
		L24.4,34z"/>
</g>
</svg>
