<?xml version="1.0" encoding="utf-8"?>
<!-- Generator: Adobe Illustrator 24.1.1, SVG Export Plug-In . SVG Version: 6.00 Build 0)  -->
<svg version="1.1" id="Layer_1" xmlns="http://www.w3.org/2000/svg" xmlns:xlink="http://www.w3.org/1999/xlink" x="0px" y="0px"
	 viewBox="0 0 50 50" style="enable-background:new 0 0 50 50;" xml:space="preserve">
<style type="text/css">
	.st0{fill:#ffffff;}
	.st1{fill:#FF0000;}
	.st2{fill:#FFFFFF;}
	.st3{fill:none;stroke:#FF0000;stroke-width:0.75;stroke-linecap:round;stroke-miterlimit:10;}
	.st4{fill:#eaeaea;}
	.st5{fill:none;stroke:#ffffff;stroke-miterlimit:10;}
</style>
<g>
	<line class="st3" x1="24.5" y1="14.3" x2="24.5" y2="30"/>
	<rect x="18.7" y="9.9" class="st0" width="11.7" height="3.6"/>
	<rect x="16.3" y="10.6" class="st0" width="11.7" height="2.2"/>
	<g>
		<path class="st4" d="M35.5,13.8h-9.3c1.7,0.2,3.4,0.8,5,1.7c1.8,1.1,3.3,2.6,4.4,4.4c2.4,4,2.5,9,0.2,13c-2.3,4-6.6,6.5-11.2,6.6
			c0,0,0,0,0,0c-2.3,0-4.6-0.6-6.6-1.8c-1.8-1.1-3.3-2.6-4.4-4.4c-3.1-5.1-2.3-11.6,1.9-15.8c2.1-2.1,4.7-3.3,7.5-3.7h-9.4
			c-1.1,0-2,0.9-2,2v22c0,1.1,0.9,2,2,2h22c1.1,0,2-0.9,2-2v-22C37.5,14.7,36.6,13.8,35.5,13.8z"/>
		<path class="st0" d="M22.9,13.8h3.3C25.1,13.7,24,13.7,22.9,13.8z"/>
		<path class="st0" d="M13.5,33.2c1.1,1.8,2.6,3.3,4.4,4.4c2,1.2,4.3,1.8,6.6,1.8c0,0,0,0,0,0c4.6,0,8.9-2.5,11.2-6.6
			c2.3-4,2.2-9-0.2-13c-1.1-1.8-2.6-3.3-4.4-4.4c-1.6-0.9-3.3-1.5-5-1.7h-3.3c-2.8,0.4-5.4,1.6-7.5,3.7
			C11.2,21.7,10.4,28.2,13.5,33.2z M24.5,14.8C24.5,14.8,24.5,14.8,24.5,14.8c2.1,0,4.3,0.6,6.1,1.7c1.6,1,3,2.4,4,4
			c2.8,4.7,2.1,10.6-1.8,14.4c-3.8,3.8-9.8,4.6-14.4,1.8c-1.6-1-3-2.4-4-4c-2.2-3.6-2.2-8.2-0.2-11.9C16.4,17.1,20.3,14.8,24.5,14.8
			z"/>
	</g>
	<path class="st5" d="M25.7,32.6h-2.4c-0.6,0-1-0.4-1-1V13.9c0-0.6,0.4-1,1-1h2.4c0.6,0,1,0.4,1,1v17.7
		C26.7,32.1,26.2,32.6,25.7,32.6z"/>
	<rect x="22.7" y="30" class="st0" width="3.6" height="2.2"/>
	<polygon class="st0" points="26.3,18.7 24.5,18 22.7,18.7 22.7,14 26.3,14 	"/>
	<path class="st5" d="M22.3,20.2c0-1.2,1-2.2,2.2-2.2c1.2,0,2.2,1,2.2,2.2"/>
	<path class="st0" d="M22,24.4h-1.1c-0.6,0-1.1-0.5-1.1-1.1V10h0.6v13.3c0,0.3,0.2,0.5,0.5,0.5H22V24.4z"/>
	<rect x="19.6" y="10.6" class="st0" width="9.9" height="4.5"/>
</g>
</svg>
