<?xml version="1.0" encoding="utf-8"?>
<!-- Generator: Adobe Illustrator 24.1.1, SVG Export Plug-In . SVG Version: 6.00 Build 0)  -->
<svg version="1.1" id="Layer_1" xmlns="http://www.w3.org/2000/svg" xmlns:xlink="http://www.w3.org/1999/xlink" x="0px" y="0px"
	 viewBox="0 0 50 50" style="enable-background:new 0 0 50 50;" xml:space="preserve">
<style type="text/css">
	.st0{fill:#ffffff;}
	.st1{fill:#FF0000;}
	.st2{fill:#FFFFFF;}
	.st3{fill:none;stroke:#FF0000;stroke-width:0.75;stroke-linecap:round;stroke-miterlimit:10;}
	.st4{fill:#eaeaea;}
	.st5{fill:none;stroke:#ffffff;stroke-miterlimit:10;}
</style>
<g>
	<path class="st0" d="M48.2,29.5c0,0-1.7,0-2.5-0.8c0,0,0,0,0,0l-0.4-0.7c-0.2-0.5-0.3-1.1-0.5-1.8c-0.2-1.1-0.5-2.3-1-3.3
		c-1.1-2.2-2.2-3.3-4.3-4.3c-2.1-1-6.5-1.6-11.2-2.2l-0.1,0c-2-0.3-4.1-0.5-6-0.8c-2.3-0.4-4.2-0.1-5.6,0.9
		c-1.3,0.9-1.8,2.2-1.9,2.8c-0.9,0.7-1.6,1.8-1.9,3c-0.4,1.6-0.2,3.4,0.5,5c0.4,0.8,0.9,1.5,1.5,2.2v-2.5c0-0.1-0.1-0.2-0.1-0.3
		c-0.6-1.3-0.8-2.7-0.4-4c0.3-1.2,1-2.1,2-2.6c1-0.5,2.2-0.4,3.3,0.1c1.2,0.6,2.2,1.6,2.8,2.9c0.4,0.9,0.6,1.9,0.6,2.8h1.5
		c0-1.1-0.2-2.3-0.7-3.4c-0.7-1.5-1.7-2.6-3.1-3.4l3.7-1.6c1.2,0.2,2.4,0.3,3.6,0.5c3.2,0.4,6.4,0.8,8.7,1.4l-6.1,2
		c-0.2,0.1-0.5,0.1-0.7,0.2l-0.3,0.1l0,0c-1.4,0.7-2.4,1.9-2.8,3.6c0,0.2-0.1,0.4-0.1,0.6h1.5c0-0.1,0-0.1,0-0.2
		c0.3-1.2,1-2.1,2-2.6c0.5-0.2,1-0.3,1.5-0.3c0.6,0,1.2,0.1,1.8,0.4c1.2,0.6,2.2,1.6,2.8,2.9c0.6,1.3,0.8,2.7,0.4,4
		c-0.3,1.2-1,2.1-2.1,2.6c-2,0.9-4.6-0.3-5.9-2.7v2.5c1.2,1.3,2.8,2,4.5,2c0.7,0,1.3-0.1,2-0.4l0,0l9-4.5c0.1,0.1,0.2,0.2,0.2,0.3
		c1.2,1.2,3.4,1.2,3.5,1.2c0.4,0,0.7-0.3,0.8-0.7C49,29.8,48.6,29.5,48.2,29.5z M18.8,18.2c-0.6-0.1-1.2-0.1-1.7,0
		c0.2-0.2,0.4-0.4,0.6-0.6c0.7-0.5,1.7-0.8,2.9-0.8c0.4,0,0.8,0,1.2,0.1L18.8,18.2z M38.3,30.9c0.1-0.2,0.1-0.4,0.2-0.6
		c0.4-1.6,0.2-3.4-0.5-5c-0.8-1.6-2-2.9-3.5-3.6c0,0-0.1,0-0.1,0l4.8-1.6c1.7,0.9,2.5,1.8,3.4,3.5c0.4,0.8,0.7,1.9,0.9,2.9
		c0.1,0.6,0.3,1.1,0.4,1.6L38.3,30.9z"/>
	<g>
		<path class="st1" d="M27.4,34.5c-0.1,0-0.3,0-0.4,0L25,34.4l1.2-1.4l-5.8-1.6l4.8-4.5l-1.7-1l1.8-0.8c0.8-0.4,1.7-0.5,2.6-0.5
			c0.8,0,1.6,0.2,2.4,0.5c1.5,0.7,2.6,1.9,2.9,3.4c0,0.1,0,0.2,0,0.3c0.2,1.5-0.3,3-1.6,4.2C30.5,33.9,29,34.5,27.4,34.5L27.4,34.5z
			"/>
		<path class="st2" d="M27.8,25c0.8,0,1.5,0.1,2.2,0.4c1.4,0.6,2.4,1.7,2.7,3.1c0,0.1,0,0.2,0,0.2c0.2,1.4-0.3,2.8-1.4,3.8
			c-1.1,1-2.5,1.5-4,1.5c-0.1,0-0.3,0-0.4,0l-1.2-0.1l1.1-1.3l-5.7-1.6l4.7-4.4l-1.5-0.8l1.1-0.5C26.2,25.1,27,25,27.8,25
			 M27.8,24.2c-0.9,0-1.9,0.2-2.7,0.6L24,25.3l-1.4,0.6l1.3,0.7l0.6,0.3l-4,3.7l-1,0.9l1.3,0.4l4.6,1.3l-0.3,0.4l-1,1.1l1.5,0.1
			l1.2,0.1c0.1,0,0.3,0,0.4,0c1.7,0,3.3-0.6,4.5-1.7c1.3-1.2,1.9-2.9,1.7-4.5c0-0.1,0-0.2,0-0.3c-0.3-1.6-1.5-3-3.1-3.7
			C29.6,24.4,28.7,24.2,27.8,24.2L27.8,24.2z"/>
	</g>
	<g>
		<path class="st1" d="M12.9,32.1l1.1-1.5L8,29.4l4.5-4.8l-1.7-0.8l1.7-0.9c0.9-0.5,1.9-0.7,2.9-0.7c0.7,0,1.4,0.1,2,0.3
			c1.6,0.6,2.7,1.7,3.1,3.2c0,0.1,0,0.2,0.1,0.2c0.3,1.5-0.1,3-1.3,4.3c-1.1,1.2-2.8,1.9-4.5,1.9L12.9,32.1z"/>
		<path class="st2" d="M15.5,22.5c0.6,0,1.3,0.1,1.9,0.3c1.5,0.5,2.5,1.6,2.9,2.9c0,0.1,0,0.2,0.1,0.2c0.3,1.4-0.1,2.8-1.2,3.9
			c-1.1,1.1-2.6,1.8-4.3,1.8c0,0,0,0,0,0l-1.2,0l1-1.3l-5.8-1.2l4.4-4.7l-1.5-0.7l1.1-0.5C13.6,22.7,14.5,22.5,15.5,22.5 M15.5,21.8
			c-1.1,0-2.1,0.3-3.1,0.8l-1.1,0.5L10,23.7l1.3,0.7l0.6,0.3l-3.7,4l-0.9,1l1.3,0.3l4.7,1L13,31.3l-0.9,1.2l1.5,0l1.2,0
			c1.9,0,3.6-0.7,4.8-2c1.2-1.3,1.7-3,1.4-4.6c0-0.1,0-0.2-0.1-0.3c-0.4-1.6-1.6-2.9-3.3-3.5C16.9,21.9,16.2,21.8,15.5,21.8
			L15.5,21.8z"/>
	</g>
</g>
</svg>
