<?xml version="1.0" encoding="utf-8"?>
<!-- Generator: Adobe Illustrator 24.1.1, SVG Export Plug-In . SVG Version: 6.00 Build 0)  -->
<svg version="1.1" id="Layer_1" xmlns="http://www.w3.org/2000/svg" xmlns:xlink="http://www.w3.org/1999/xlink" x="0px" y="0px"
	 viewBox="0 0 50 50" style="enable-background:new 0 0 50 50;" xml:space="preserve">
<style type="text/css">
	.st0{fill:#ffffff;}
	.st1{fill:#FF0000;}
	.st2{fill:#FFFFFF;}
	.st3{fill:none;stroke:#FF0000;stroke-width:0.75;stroke-linecap:round;stroke-miterlimit:10;}
	.st4{fill:#eaeaea;}
	.st5{fill:none;stroke:#ffffff;stroke-miterlimit:10;}
</style>
<g>
	<path class="st0" d="M41.1,35.3l0.2-0.5c1-2.3,1.4-4.7,1.4-7.2c0-5-1.9-9.6-5.4-13.1c-3.5-3.5-8.2-5.4-13.1-5.4s-9.6,1.9-13.1,5.4
		C7.6,18,5.6,22.7,5.6,27.6c0,2.5,0.5,4.9,1.4,7.2l0.2,0.5h5.8l3.8,5.2h14.5l3.8-5.2H41.1z M30.5,38.9H17.7L14,33.6H8.5l-0.1-0.2
		c-0.6-1.5-0.9-3.1-1-4.7l0-0.3h2.8v-1.7H7.4l0-0.3c0.1-2.2,0.7-4.3,1.7-6.3L9.2,20l2.5,1.4l0.9-1.5l-2.5-1.4l0.1-0.2
		c1.2-1.8,2.8-3.4,4.6-4.6l0.2-0.1l1.4,2.5l1.5-0.9l-1.4-2.5l0.2-0.1c2-1,4.1-1.5,6.3-1.7l0.3,0v2.8H25v-2.8l0.3,0
		c2.2,0.1,4.3,0.7,6.3,1.7l0.2,0.1l-1.4,2.5l1.5,0.9l1.4-2.5l0.2,0.1c1.8,1.2,3.4,2.8,4.6,4.6l0.1,0.2l-2.5,1.4l0.9,1.5l2.5-1.4
		l0.1,0.2c1,2,1.5,4.1,1.7,6.3l0,0.3h-2.8v1.7H41l0,0.3c-0.1,1.6-0.4,3.2-1,4.7l-0.1,0.2h-5.7L30.5,38.9z"/>
	<path class="st1" d="M17.8,20.4L16,19.6l0.8,1.9c0.5,1.3,1.9,4.5,3.1,7l0.7,1.6l0.4,0.6l0.6,0.6c0.7,0.7,1.7,1.1,2.7,1.1
		c1.1,0,2.1-0.4,2.8-1.1c0.8-0.7,1.2-1.8,1.2-2.8c0-1.1-0.4-2.1-1.1-2.8c-0.3-0.3-1.2-1-3.7-2.3L23.2,23l-1.4-0.7L21.2,22
		C19.8,21.3,18.5,20.7,17.8,20.4z"/>
</g>
</svg>
