<?xml version="1.0" encoding="utf-8"?>
<!-- Generator: Adobe Illustrator 24.1.1, SVG Export Plug-In . SVG Version: 6.00 Build 0)  -->
<svg version="1.1" id="Layer_1" xmlns="http://www.w3.org/2000/svg" xmlns:xlink="http://www.w3.org/1999/xlink" x="0px" y="0px"
	 viewBox="0 0 50 50" style="enable-background:new 0 0 50 50;" xml:space="preserve">
<style type="text/css">
	.st0{fill:#ffffff;}
	.st1{fill:#FF0000;}
	.st2{fill:#FFFFFF;}
	.st3{fill:none;stroke:#FF0000;stroke-width:0.75;stroke-linecap:round;stroke-miterlimit:10;}
	.st4{fill:#eaeaea;}
	.st5{fill:none;stroke:#ffffff;stroke-miterlimit:10;}
</style>
<g>
	<path class="st0" d="M41,19.9c-4.1-4.1-9.5-6.3-15.2-6.3s-11.1,2.2-15.2,6.3s-6.3,9.5-6.3,15.2v0.8h7.3l1.7-3h0.7h4.7h19.7l1.7,3
		h7.3v-0.8C47.3,29.4,45.1,24,41,19.9z M40.9,34.3l-1.7-3H19.1H15h-2.6l-1.7,3H5.9l0-0.5c0.2-2.6,0.8-5.1,2-7.5l0.2-0.5l2.9,1.7
		l0.8-1.4l-2.9-1.7L9.2,24c1.5-2.2,3.3-4,5.5-5.5l0.4-0.3l1.7,2.9l1.4-0.8l-1.7-2.9l0.5-0.2c2.3-1.2,4.9-1.8,7.5-2l0.5,0v3.3h1.6
		v-3.3l0.5,0c2.6,0.2,5.1,0.8,7.5,2l0.5,0.2l-1.7,2.9l1.4,0.8l1.7-2.9l0.4,0.3c2.2,1.5,4,3.3,5.5,5.5l0.3,0.4l-2.9,1.7l0.8,1.4
		l2.9-1.7l0.2,0.5c1.2,2.3,1.8,4.9,2,7.5l0,0.5H40.9z"/>
	<path class="st1" d="M35.2,29.8l1.6-1.2l-2-0.2c-1.4-0.1-4.9-0.4-7.7-0.4l-1.8-0.1L24.6,28l-0.8,0.3c-0.9,0.3-1.7,1-2.2,1.9
		c-0.5,0.9-0.6,2-0.3,3c0.3,1,1,1.9,1.9,2.4c0.9,0.5,2,0.6,3,0.3c0.4-0.1,1.5-0.6,3.8-2.3l0.3-0.2l1.3-0.9l0.5-0.4
		C33.5,31.2,34.6,30.3,35.2,29.8z"/>
</g>
</svg>
