<?xml version="1.0" encoding="utf-8"?>
<!-- Generator: Adobe Illustrator 24.1.1, SVG Export Plug-In . SVG Version: 6.00 Build 0)  -->
<svg version="1.1" id="Layer_1" xmlns="http://www.w3.org/2000/svg" xmlns:xlink="http://www.w3.org/1999/xlink" x="0px" y="0px"
	 viewBox="0 0 50 50" style="enable-background:new 0 0 50 50;" xml:space="preserve">
<style type="text/css">
	.st0{fill:#ffffff;}
	.st1{fill:#FF0000;}
	.st2{fill:#FFFFFF;}
	.st3{fill:none;stroke:#FF0000;stroke-width:0.75;stroke-linecap:round;stroke-miterlimit:10;}
	.st4{fill:#eaeaea;}
	.st5{fill:none;stroke:#ffffff;stroke-miterlimit:10;}
</style>
<g>
	<path class="st0" d="M39.9,19.1c-4.1-4.1-9.5-6.3-15.2-6.3S13.6,15,9.5,19.1s-6.3,9.5-6.3,15.2V35h7.3l1.7-3h0.7h4.7h19.7l1.7,3
		h7.3v-0.8C46.2,28.5,44,23.1,39.9,19.1z M39.9,33.5l-1.7-3H18.1h-4.2h-2.6l-1.7,3H4.8l0-0.5c0.2-2.6,0.8-5.1,2-7.5L7.1,25l2.9,1.7
		l0.8-1.4l-2.9-1.7l0.3-0.4c1.5-2.2,3.3-4,5.5-5.5l0.4-0.3l1.7,2.9l1.4-0.8l-1.7-2.9l0.5-0.2c2.3-1.2,4.9-1.8,7.5-2l0.5,0v3.3h1.6
		v-3.3l0.5,0c2.6,0.2,5.1,0.8,7.5,2l0.5,0.2l-1.7,2.9l1.4,0.8l1.7-2.9l0.4,0.3c2.2,1.5,4,3.3,5.5,5.5l0.3,0.4l-2.9,1.7l0.8,1.4
		l2.9-1.7l0.2,0.5c1.2,2.3,1.8,4.9,2,7.5l0,0.5H39.9z"/>
	<path class="st1" d="M25.6,22.7l-0.7-1.9l-0.8,1.9c-0.5,1.3-1.8,4.6-2.6,7.2l-0.6,1.7l-0.1,0.7l0,0.8c0,1,0.4,1.9,1.1,2.6
		c0.7,0.8,1.7,1.2,2.8,1.2c1.1,0,2.1-0.4,2.8-1.1c0.8-0.7,1.2-1.7,1.2-2.8c0-0.5-0.2-1.6-1-4.3l-0.1-0.4l-0.5-1.5l-0.2-0.6
		C26.3,24.7,25.8,23.4,25.6,22.7z"/>
</g>
</svg>
