<?xml version="1.0" encoding="utf-8"?>
<!-- Generator: Adobe Illustrator 24.1.1, SVG Export Plug-In . SVG Version: 6.00 Build 0)  -->
<svg version="1.1" id="Layer_1" xmlns="http://www.w3.org/2000/svg" xmlns:xlink="http://www.w3.org/1999/xlink" x="0px" y="0px"
	 viewBox="0 0 50 50" style="enable-background:new 0 0 50 50;" xml:space="preserve">
<style type="text/css">
	.st0{fill:#ffffff;}
	.st1{fill:#FF0000;}
	.st2{fill:#FFFFFF;}
	.st3{fill:none;stroke:#FF0000;stroke-width:0.75;stroke-linecap:round;stroke-miterlimit:10;}
	.st4{fill:#eaeaea;}
	.st5{fill:none;stroke:#ffffff;stroke-miterlimit:10;}
</style>
<g>
	<path class="st0" d="M32.1,32.7c6.3-4,7.4-10.9,5.3-16c-2.2-5.4-7.8-8.6-13.7-7.8c-5.8,0.8-10.3,5.5-11,11.6
		c-0.5,4.9,2.3,9.8,5.6,11.6C19,31,19,31,18.1,30.2c-3.7-3.3-4.9-8.4-3-13c1.9-4.6,6.5-7.4,11.4-7c7.7,0.6,12.6,8.6,9.6,15.7
		c-1,2.3-2.5,4.1-4.7,5.4c-0.3-0.5-0.5-0.8-0.7-1.3c-0.9,1.2-1.7,2.4-2.6,3.6c1.6,0.2,3.1,0.3,4.7,0.5
		C32.5,33.6,32.4,33.2,32.1,32.7z"/>
	<path class="st0" d="M32.1,32.7c0.2,0.5,0.4,0.9,0.6,1.4c-1.6-0.2-3.1-0.3-4.7-0.5c0.9-1.2,1.8-2.4,2.6-3.6
		c0.3,0.5,0.5,0.9,0.7,1.3c2.2-1.3,3.7-3.1,4.7-5.4c3-7.2-1.9-15.1-9.6-15.7c-4.9-0.4-9.5,2.4-11.4,7c-1.9,4.5-0.7,9.7,3,13
		C19,31,19,31,18.4,32.1c-3.3-1.8-6.1-6.7-5.6-11.6c0.7-6.1,5.1-10.8,11-11.6c5.8-0.8,11.4,2.4,13.7,7.8
		C39.6,21.8,38.4,28.8,32.1,32.7z"/>
	<g>
		<path class="st0" d="M32.2,27.8c-1.5-4.9-3.1-9.7-4.6-14.6c-0.7-2.2-0.7-2.2-3.1-2c0,0,0,0-0.1,0c-1.8,5.8-3.7,11.6-5.5,17.5
			c0.5,0,0.9,0,1.3,0c0.6,0.1,0.9-0.1,1.1-0.8c0.4-1.4,0.9-2.8,1.3-4.2c0.1-0.5,0.4-0.6,0.8-0.6c1.5,0,3.1,0,4.6,0
			c0.4,0,0.6,0.1,0.8,0.6c0.3,1.1,0.7,2.2,1,3.3c0.6,1.9,0.6,1.9,2.6,1.7c0,0,0,0,0.2-0.1C32.3,28.4,32.2,28.1,32.2,27.8z
			 M23.1,21.4c0.8-2.7,1.6-5.3,2.4-8c0.8,2.7,1.6,5.3,2.4,8C26.3,21.4,24.8,21.4,23.1,21.4z"/>
	</g>
	<g>
		<path class="st1" d="M23.2,38.7c0,0.4-0.1,0.8-0.2,1.1s-0.4,0.6-0.7,0.7c-0.3,0.2-0.6,0.3-1,0.3s-0.7-0.1-1-0.3
			c-0.3-0.2-0.5-0.4-0.7-0.7s-0.2-0.7-0.2-1.1v-0.2c0-0.4,0.1-0.8,0.2-1.1c0.2-0.3,0.4-0.6,0.7-0.7c0.3-0.2,0.6-0.3,1-0.3
			c0.4,0,0.7,0.1,1,0.3s0.5,0.4,0.7,0.7s0.2,0.7,0.2,1.1V38.7z M22.1,38.6c0-0.4-0.1-0.7-0.2-1c-0.1-0.2-0.3-0.3-0.6-0.3
			c-0.5,0-0.8,0.4-0.8,1.2l0,0.3c0,0.4,0.1,0.7,0.2,1s0.3,0.3,0.6,0.3c0.3,0,0.5-0.1,0.6-0.3s0.2-0.5,0.2-1V38.6z"/>
		<path class="st1" d="M27.3,39.1h-1.7v1.7h-1v-4.3h2.9v0.8h-1.8v1h1.7V39.1z"/>
		<path class="st1" d="M31.6,39.1h-1.7v1.7h-1v-4.3h2.9v0.8h-1.8v1h1.7V39.1z"/>
	</g>
</g>
</svg>
